999
dxflib 3.1.5.0
  0
SECTION
  2
HEADER
  9
$ACADVER
  1
AC1015
  9
$HANDSEED
  5
FFFF
  9
$DIMADEC
 70
0
  9
$DIMASZ
 40
2.5
  9
$DIMAUNIT
 70
0
  9
$DIMAZIN
 70
2
  9
$DIMDEC
 70
4
  9
$DIMEXE
 40
1.25
  9
$DIMEXO
 40
0.625
  9
$DIMGAP
 40
0.625
  9
$DIMLUNIT
 70
2
  9
$DIMTSZ
 40
0.0
  9
$DIMTXT
 40
2.5
  9
$DIMZIN
 70
8
  9
$INSUNITS
 70
4
  9
$LTSCALE
 40
1.0
  0
SECTION
  2
TABLES
  0
TABLE
  2
VPORT
  5
8
100
AcDbSymbolTable
 70
1
  0
VPORT
  5
30
100
AcDbSymbolTableRecord
100
AcDbViewportTableRecord
  2
*Active
 70
0
 10
0.0
 20
0.0
 11
1.0
 21
1.0
 12
286.3055555555554861
 22
148.5
 13
0.0
 23
0.0
 14
10.0
 24
10.0
 15
10.0
 25
10.0
 16
0.0
 26
0.0
 36
1.0
 17
0.0
 27
0.0
 37
0.0
 40
297.0
 41
1.92798353909465
 42
50.0
 43
0.0
 44
0.0
 50
0.0
 51
0.0
 71
0
 72
100
 73
1
 74
3
 75
1
 76
1
 77
0
 78
0
281
0
 65
1
110
0.0
120
0.0
130
0.0
111
1.0
121
0.0
131
0.0
112
0.0
122
1.0
132
0.0
 79
0
146
0.0
  0
ENDTAB
  0
TABLE
  2
LTYPE
  5
5
100
AcDbSymbolTable
 70
21
  0
LTYPE
  5
31
100
AcDbSymbolTableRecord
100
AcDbLinetypeTableRecord
  2
CENTER2
 70
0
  3
Center (.5x) ___ _ ___ _ ___ _ ___ _ ___ _ ___
 72
65
 73
4
 40
28.5749999999999993
 49
19.0500000000000007
 74
0
 49
-3.1749999999999998
 74
0
 49
3.1749999999999998
 74
0
 49
-3.1749999999999998
 74
0
  0
LTYPE
  5
32
100
AcDbSymbolTableRecord
100
AcDbLinetypeTableRecord
  2
DIVIDEX2
 70
0
  3
Divide (2x) ________  .  .  ________  .  .  _
 72
65
 73
6
 40
63.5
 49
25.3999999999999986
 74
0
 49
-12.6999999999999993
 74
0
 49
0.0
 74
0
 49
-12.6999999999999993
 74
0
 49
0.0
 74
0
 49
-12.6999999999999993
 74
0
  0
LTYPE
  5
33
100
AcDbSymbolTableRecord
100
AcDbLinetypeTableRecord
  2
DOT2
 70
0
  3
Dot (.5x) .....................................
 72
65
 73
2
 40
3.1749999999999998
 49
0.0
 74
0
 49
-3.1749999999999998
 74
0
  0
LTYPE
  5
34
100
AcDbSymbolTableRecord
100
AcDbLinetypeTableRecord
  2
DASHDOT2
 70
0
  3
Dash dot (.5x) _._._._._._._._._._._._._._._.
 72
65
 73
4
 40
12.6999999999999993
 49
6.3499999999999996
 74
0
 49
-3.1749999999999998
 74
0
 49
0.0
 74
0
 49
-3.1749999999999998
 74
0
  0
LTYPE
  5
35
100
AcDbSymbolTableRecord
100
AcDbLinetypeTableRecord
  2
DIVIDE
 70
0
  3
Divide ____ . . ____ . . ____ . . ____ . . ____
 72
65
 73
6
 40
31.75
 49
12.6999999999999993
 74
0
 49
-6.3499999999999996
 74
0
 49
0.0
 74
0
 49
-6.3499999999999996
 74
0
 49
0.0
 74
0
 49
-6.3499999999999996
 74
0
  0
LTYPE
  5
36
100
AcDbSymbolTableRecord
100
AcDbLinetypeTableRecord
  2
DASHDOT
 70
0
  3
Dash dot __ . __ . __ . __ . __ . __ . __ . __
 72
65
 73
4
 40
25.3999999999999986
 49
12.6999999999999993
 74
0
 49
-6.3499999999999996
 74
0
 49
0.0
 74
0
 49
-6.3499999999999996
 74
0
  0
LTYPE
  5
37
100
AcDbSymbolTableRecord
100
AcDbLinetypeTableRecord
  2
BORDER
 70
0
  3
Border __ __ . __ __ . __ __ . __ __ . __ __ .
 72
65
 73
6
 40
44.4500000000000028
 49
12.6999999999999993
 74
0
 49
-6.3499999999999996
 74
0
 49
12.6999999999999993
 74
0
 49
-6.3499999999999996
 74
0
 49
0.0
 74
0
 49
-6.3499999999999996
 74
0
  0
LTYPE
  5
38
100
AcDbSymbolTableRecord
100
AcDbLinetypeTableRecord
  2
DASHDOTX2
 70
0
  3
Dash dot (2x) ____  .  ____  .  ____  .  ___
 72
65
 73
4
 40
50.7999999999999972
 49
25.3999999999999986
 74
0
 49
-12.6999999999999993
 74
0
 49
0.0
 74
0
 49
-12.6999999999999993
 74
0
  0
LTYPE
  5
39
100
AcDbSymbolTableRecord
100
AcDbLinetypeTableRecord
  2
CENTERX2
 70
0
  3
Center (2x) ________  __  ________  __  _____
 72
65
 73
4
 40
101.5999999999999943
 49
63.5
 74
0
 49
-12.6999999999999993
 74
0
 49
12.6999999999999993
 74
0
 49
-12.6999999999999993
 74
0
  0
LTYPE
  5
3A
100
AcDbSymbolTableRecord
100
AcDbLinetypeTableRecord
  2
BORDER2
 70
0
  3
Border (.5x) __.__.__.__.__.__.__.__.__.__.__.
 72
65
 73
6
 40
22.2250000000000014
 49
6.3499999999999996
 74
0
 49
-3.1749999999999998
 74
0
 49
6.3499999999999996
 74
0
 49
-3.1749999999999998
 74
0
 49
0.0
 74
0
 49
-3.1749999999999998
 74
0
  0
LTYPE
  5
3B
100
AcDbSymbolTableRecord
100
AcDbLinetypeTableRecord
  2
BORDERX2
 70
0
  3
Border (2x) ____  ____  .  ____  ____  .  ___
 72
65
 73
6
 40
88.9000000000000057
 49
25.3999999999999986
 74
0
 49
-12.6999999999999993
 74
0
 49
25.3999999999999986
 74
0
 49
-12.6999999999999993
 74
0
 49
0.0
 74
0
 49
-12.6999999999999993
 74
0
  0
LTYPE
  5
16
100
AcDbSymbolTableRecord
100
AcDbLinetypeTableRecord
  2
CONTINUOUS
 70
0
  3
Solid line
 72
65
 73
0
 40
0.0
  0
LTYPE
  5
14
100
AcDbSymbolTableRecord
100
AcDbLinetypeTableRecord
  2
BYBLOCK
 70
0
  3

 72
65
 73
0
 40
0.0
  0
LTYPE
  5
15
100
AcDbSymbolTableRecord
100
AcDbLinetypeTableRecord
  2
BYLAYER
 70
0
  3

 72
65
 73
0
 40
0.0
  0
LTYPE
  5
3C
100
AcDbSymbolTableRecord
100
AcDbLinetypeTableRecord
  2
DASHED2
 70
0
  3
Dashed (.5x) _ _ _ _ _ _ _ _ _ _ _ _ _ _ _ _ _
 72
65
 73
2
 40
9.5250000000000004
 49
6.3499999999999996
 74
0
 49
-3.1749999999999998
 74
0
  0
LTYPE
  5
3D
100
AcDbSymbolTableRecord
100
AcDbLinetypeTableRecord
  2
CENTER
 70
0
  3
Center ____ _ ____ _ ____ _ ____ _ ____ _ ____
 72
65
 73
4
 40
50.7999999999999972
 49
31.75
 74
0
 49
-6.3499999999999996
 74
0
 49
6.3499999999999996
 74
0
 49
-6.3499999999999996
 74
0
  0
LTYPE
  5
3E
100
AcDbSymbolTableRecord
100
AcDbLinetypeTableRecord
  2
DIVIDE2
 70
0
  3
Divide (.5x) __..__..__..__..__..__..__..__.._
 72
65
 73
6
 40
15.875
 49
6.3499999999999996
 74
0
 49
-3.1749999999999998
 74
0
 49
0.0
 74
0
 49
-3.1749999999999998
 74
0
 49
0.0
 74
0
 49
-3.1749999999999998
 74
0
  0
LTYPE
  5
3F
100
AcDbSymbolTableRecord
100
AcDbLinetypeTableRecord
  2
DASHED
 70
0
  3
Dashed __ __ __ __ __ __ __ __ __ __ __ __ __ _
 72
65
 73
2
 40
19.0500000000000007
 49
12.6999999999999993
 74
0
 49
-6.3499999999999996
 74
0
  0
LTYPE
  5
40
100
AcDbSymbolTableRecord
100
AcDbLinetypeTableRecord
  2
DOTX2
 70
0
  3
Dot (2x) .  .  .  .  .  .  .  .  .  .  .  .  .
 72
65
 73
2
 40
12.6999999999999993
 49
0.0
 74
0
 49
-12.6999999999999993
 74
0
  0
LTYPE
  5
41
100
AcDbSymbolTableRecord
100
AcDbLinetypeTableRecord
  2
DASHEDX2
 70
0
  3
Dashed (2x) ____  ____  ____  ____  ____  ___
 72
65
 73
2
 40
38.1000000000000014
 49
25.3999999999999986
 74
0
 49
-12.6999999999999993
 74
0
  0
LTYPE
  5
42
100
AcDbSymbolTableRecord
100
AcDbLinetypeTableRecord
  2
DOT
 70
0
  3
Dot . . . . . . . . . . . . . . . . . . . . . .
 72
65
 73
2
 40
6.3499999999999996
 49
0.0
 74
0
 49
-6.3499999999999996
 74
0
  0
ENDTAB
  0
TABLE
  2
LAYER
  5
2
100
AcDbSymbolTable
 70
1
  0
LAYER
  5
10
100
AcDbSymbolTableRecord
100
AcDbLayerTableRecord
  2
0
 70
0
 62
7
420
16777215
  6
CONTINUOUS
370
25
390
F
  0
ENDTAB
  0
TABLE
  2
STYLE
  5
3
100
AcDbSymbolTable
 70
0
  0
ENDTAB
  0
TABLE
  2
VIEW
  5
6
100
AcDbSymbolTable
 70
0
  0
ENDTAB
  0
TABLE
  2
UCS
  5
7
100
AcDbSymbolTable
 70
0
  0
ENDTAB
  0
TABLE
  2
APPID
  5
9
100
AcDbSymbolTable
 70
1
  0
APPID
  5
43
100
AcDbSymbolTableRecord
100
AcDbRegAppTableRecord
  2
QCAD
 70
0
  0
ENDTAB
  0
TABLE
  2
DIMSTYLE
  5
A
100
AcDbSymbolTable
 70
1
100
AcDbDimStyleTable
 71
0
  0
DIMSTYLE
105
27
100
AcDbSymbolTableRecord
100
AcDbDimStyleTableRecord
  2
Standard
 41
2.5
 42
0.625
 43
3.75
 44
1.25
 70
0
 73
0
 74
0
 77
1
 78
8
140
2.5
141
2.5
143
0.03937007874016
147
0.625
171
3
172
1
271
2
272
2
274
3
278
44
283
0
284
8
340
11
  0
ENDTAB
  0
TABLE
  2
BLOCK_RECORD
  5
1
100
AcDbSymbolTable
 70
1
  0
BLOCK_RECORD
  5
1F
100
AcDbSymbolTableRecord
100
AcDbBlockTableRecord
  2
*Model_Space
340
22
  0
BLOCK_RECORD
  5
1B
100
AcDbSymbolTableRecord
100
AcDbBlockTableRecord
  2
*Paper_Space
340
1E
  0
BLOCK_RECORD
  5
23
100
AcDbSymbolTableRecord
100
AcDbBlockTableRecord
  2
*Paper_Space0
340
26
  0
BLOCK_RECORD
  5
44
100
AcDbSymbolTableRecord
100
AcDbBlockTableRecord
  2
*Model_Space
340
0
  0
ENDTAB
  0
ENDSEC
  0
SECTION
  2
BLOCKS
  0
BLOCK
  5
20
100
AcDbEntity
  8
0
100
AcDbBlockBegin
  2
*Model_Space
 70
0
 10
0.0
 20
0.0
 30
0.0
  3
*Model_Space
  1

  0
ENDSEC
  0
SECTION
  2
ENTITIES
  0
LINE
  5
45
100
AcDbEntity
100
AcDbLine
  8
0
 62
256
370
-1
  6
BYLAYER
 10
20.3949366624161144
 20
208.3091502247912103
 30
0.0
 11
20.3949366624156738
 21
208.3091502247907556
 31
0.0
  0
LINE
  5
46
100
AcDbEntity
100
AcDbLine
  8
0
 62
256
370
-1
  6
BYLAYER
 10
95.8954451971504938
 20
81.1462994892367817
 30
0.0
 11
95.8954451971504938
 21
71.1462994892368101
 31
0.0
  0
LINE
  5
47
100
AcDbEntity
100
AcDbLine
  8
0
 62
256
370
-1
  6
BYLAYER
 10
95.8954451971504938
 20
71.1462994892368101
 30
0.0
 11
92.0
 21
71.1462994892368101
 31
0.0
  0
LINE
  5
48
100
AcDbEntity
100
AcDbLine
  8
0
 62
256
370
-1
  6
BYLAYER
 10
92.0
 20
51.1462994892367959
 30
0.0
 11
95.8954451971504938
 21
51.1462994892367959
 31
0.0
  0
LINE
  5
49
100
AcDbEntity
100
AcDbLine
  8
0
 62
256
370
-1
  6
BYLAYER
 10
95.8954451971504938
 20
51.1462994892367959
 30
0.0
 11
95.8954451971504938
 21
41.1462994892367959
 31
0.0
  0
LINE
  5
4A
100
AcDbEntity
100
AcDbLine
  8
0
 62
256
370
-1
  6
BYLAYER
 10
95.8954451971504938
 20
81.1462994892367817
 30
0.0
 11
25.8954451971505009
 21
81.1462994892367817
 31
0.0
  0
LINE
  5
4B
100
AcDbEntity
100
AcDbLine
  8
0
 62
256
370
-1
  6
BYLAYER
 10
95.8954451971504938
 20
41.1462994892367959
 30
0.0
 11
25.8954451971505009
 21
41.1462994892367817
 31
0.0
  0
LINE
  5
4C
100
AcDbEntity
100
AcDbLine
  8
0
 62
256
370
-1
  6
BYLAYER
 10
118.877624844143341
 20
93.1629743291990451
 30
0.0
 11
118.877624844143341
 21
93.1629743291990451
 31
0.0
  0
LINE
  5
4D
100
AcDbEntity
100
AcDbLine
  8
0
 62
256
370
-1
  6
BYLAYER
 10
118.877624844143341
 20
93.1629743291990451
 30
0.0
 11
121.877624844143341
 21
93.1629743291990451
 31
0.0
  0
LINE
  5
4E
100
AcDbEntity
100
AcDbLine
  8
0
 62
256
370
-1
  6
BYLAYER
 10
118.877624844143341
 20
93.1629743291990451
 30
0.0
 11
118.8776248441433978
 21
75.1629743291989882
 31
0.0
  0
LINE
  5
4F
100
AcDbEntity
100
AcDbLine
  8
0
 62
256
370
-1
  6
BYLAYER
 10
83.0050633375822287
 20
37.4091502247908068
 30
0.0
 11
83.0050633375842608
 21
37.4091502247928247
 31
0.0
  0
LINE
  5
50
100
AcDbEntity
100
AcDbLine
  8
0
 62
256
370
-1
  6
BYLAYER
 10
118.8776248441433978
 20
75.1629743291989882
 30
0.0
 11
115.0
 21
75.1629743291989882
 31
0.0
  0
LINE
  5
51
100
AcDbEntity
100
AcDbLine
  8
0
 62
256
370
-1
  6
BYLAYER
 10
115.0
 20
75.1629743291989882
 30
0.0
 11
115.0
 21
49.1629743291990309
 31
0.0
  0
LINE
  5
52
100
AcDbEntity
100
AcDbLine
  8
0
 62
256
370
-1
  6
BYLAYER
 10
115.0
 20
49.1629743291990309
 30
0.0
 11
118.877624844143341
 21
49.1629743291990309
 31
0.0
  0
LINE
  5
53
100
AcDbEntity
100
AcDbLine
  8
0
 62
256
370
-1
  6
BYLAYER
 10
99.9999999999999005
 20
36.0000000000003979
 30
0.0
 11
79.9999999999998579
 21
36.0000000000002558
 31
0.0
  0
LINE
  5
54
100
AcDbEntity
100
AcDbLine
  8
0
 62
256
370
-1
  6
BYLAYER
 10
39.9999999999999005
 20
35.9999999999999716
 30
0.0
 11
19.9999999999999289
 21
35.9999999999998437
 31
0.0
  0
LINE
  5
55
100
AcDbEntity
100
AcDbLine
  8
0
 62
256
370
-1
  6
BYLAYER
 10
118.877624844143341
 20
49.1629743291990309
 30
0.0
 11
118.877624844143341
 21
31.1629743291990344
 31
0.0
  0
LINE
  5
56
100
AcDbEntity
100
AcDbLine
  8
0
 62
256
370
-1
  6
BYLAYER
 10
121.877624844143341
 20
93.1629743291990451
 30
0.0
 11
121.8776248441433552
 21
97.1629743291990309
 31
0.0
  0
LINE
  5
57
100
AcDbEntity
100
AcDbLine
  8
0
 62
256
370
-1
  6
BYLAYER
 10
134.8776248441433268
 20
93.1629743291990451
 30
0.0
 11
131.8776248441433268
 21
93.1629743291990451
 31
0.0
  0
LINE
  5
58
100
AcDbEntity
100
AcDbLine
  8
0
 62
256
370
-1
  6
BYLAYER
 10
131.8776248441433268
 20
93.1629743291990451
 30
0.0
 11
131.8776248441432983
 21
97.1629743291990309
 31
0.0
  0
LINE
  5
59
100
AcDbEntity
100
AcDbLine
  8
0
 62
256
370
-1
  6
BYLAYER
 10
118.877624844143341
 20
31.1629743291990344
 30
0.0
 11
121.877624844143341
 21
31.1629743291990344
 31
0.0
  0
LINE
  5
5A
100
AcDbEntity
100
AcDbLine
  8
0
 62
256
370
-1
  6
BYLAYER
 10
121.877624844143341
 20
31.1629743291990344
 30
0.0
 11
121.8776248441433552
 21
27.1629743291990309
 31
0.0
  0
LINE
  5
5B
100
AcDbEntity
100
AcDbLine
  8
0
 62
256
370
-1
  6
BYLAYER
 10
134.8776248441433836
 20
31.1629743291990344
 30
0.0
 11
131.8776248441433268
 21
31.1629743291990344
 31
0.0
  0
LINE
  5
5C
100
AcDbEntity
100
AcDbLine
  8
0
 62
256
370
-1
  6
BYLAYER
 10
131.8776248441433268
 20
31.1629743291990344
 30
0.0
 11
131.8776248441433552
 21
27.1629743291990593
 31
0.0
  0
LINE
  5
5D
100
AcDbEntity
100
AcDbLine
  8
0
 62
256
370
-1
  6
BYLAYER
 10
134.8776248441433268
 20
93.1629743291990451
 30
0.0
 11
134.8776248441433836
 21
31.1629743291990344
 31
0.0
  0
LINE
  5
5E
100
AcDbEntity
100
AcDbLine
  8
0
 62
256
370
-1
  6
BYLAYER
 10
25.8954451971505009
 20
81.1462994892367817
 30
0.0
 11
25.8954451971505009
 21
71.1462994892367817
 31
0.0
  0
LINE
  5
5F
100
AcDbEntity
100
AcDbLine
  8
0
 62
256
370
-1
  6
BYLAYER
 10
25.8954451971505009
 20
71.1462994892367817
 30
0.0
 11
29.9999999999999964
 21
71.1462994892367817
 31
0.0
  0
LINE
  5
60
100
AcDbEntity
100
AcDbLine
  8
0
 62
256
370
-1
  6
BYLAYER
 10
29.9999999999999964
 20
51.1462994892367959
 30
0.0
 11
25.8954451971505009
 21
51.1462994892367817
 31
0.0
  0
LINE
  5
61
100
AcDbEntity
100
AcDbLine
  8
0
 62
256
370
-1
  6
BYLAYER
 10
25.8954451971505009
 20
51.1462994892367817
 30
0.0
 11
25.8954451971505009
 21
41.1462994892367817
 31
0.0
  0
LINE
  5
62
100
AcDbEntity
100
AcDbLine
  8
0
 62
256
370
-1
  6
BYLAYER
 10
109.9999999999997442
 20
56.0000000000004547
 30
0.0
 11
99.9999999999997726
 21
56.0000000000003553
 31
0.0
  0
LINE
  5
63
100
AcDbEntity
100
AcDbLine
  8
0
 62
256
370
-1
  6
BYLAYER
 10
99.9999999999997726
 20
56.0000000000003553
 30
0.0
 11
99.9999999999998863
 21
36.0000000000003979
 31
0.0
  0
LINE
  5
64
100
AcDbEntity
100
AcDbLine
  8
0
 62
256
370
-1
  6
BYLAYER
 10
9.9999999999997726
 20
55.9999999999997868
 30
0.0
 11
19.9999999999997584
 21
55.9999999999998153
 31
0.0
  0
LINE
  5
65
100
AcDbEntity
100
AcDbLine
  8
0
 62
256
370
-1
  6
BYLAYER
 10
19.9999999999997584
 20
55.9999999999998153
 30
0.0
 11
19.9999999999999005
 21
35.9999999999998437
 31
0.0
  0
LINE
  5
66
100
AcDbEntity
100
AcDbLine
  8
0
 62
256
370
-1
  6
BYLAYER
 10
69.9999999999999005
 20
86.0000000000000853
 30
0.0
 11
70.0
 21
90.0000000000001705
 31
0.0
  0
LINE
  5
67
100
AcDbEntity
100
AcDbLine
  8
0
 62
256
370
-1
  6
BYLAYER
 10
69.9999999999999005
 20
86.0000000000000853
 30
0.0
 11
69.9999999999999005
 21
86.0000000000000853
 31
0.0
  0
LINE
  5
68
100
AcDbEntity
100
AcDbLine
  8
0
 62
256
370
-1
  6
BYLAYER
 10
80.0000000000000284
 20
90.000000000000199
 30
0.0
 11
79.9999999999999005
 21
86.0000000000001421
 31
0.0
  0
LINE
  5
69
100
AcDbEntity
100
AcDbLine
  8
0
 62
256
370
-1
  6
BYLAYER
 10
79.9999999999999005
 20
86.0000000000000853
 30
0.0
 11
99.9999999999998721
 21
86.0000000000001137
 31
0.0
  0
CIRCLE
  5
6A
100
AcDbEntity
100
AcDbCircle
  8
0
 62
256
370
-1
  6
BYLAYER
 10
12.9999999999999059
 20
105.0000000000000853
 30
0.0
 40
3.5
  0
CIRCLE
  5
6B
100
AcDbEntity
100
AcDbCircle
  8
0
 62
256
370
-1
  6
BYLAYER
 10
12.9999999999999201
 20
93.6862915010153472
 30
0.0
 40
2.0
  0
CIRCLE
  5
6C
100
AcDbEntity
100
AcDbCircle
  8
0
 62
256
370
-1
  6
BYLAYER
 10
21.9949366624174374
 20
113.5908497752093922
 30
0.0
 40
1.5
  0
CIRCLE
  5
6D
100
AcDbEntity
100
AcDbCircle
  8
0
 62
256
370
-1
  6
BYLAYER
 10
3.9949366624174711
 20
113.5908497752093922
 30
0.0
 40
1.5
  0
CIRCLE
  5
6E
100
AcDbEntity
100
AcDbCircle
  8
0
 62
256
370
-1
  6
BYLAYER
 10
106.9999999999999005
 20
105.0000000000000853
 30
0.0
 40
2.0
  0
LINE
  5
6F
100
AcDbEntity
100
AcDbLine
  8
0
 62
256
370
-1
  6
BYLAYER
 10
24.9999999999998863
 20
116.0000000000001137
 30
0.0
 11
3.9999999999999059
 21
116.0000000000001137
 31
0.0
  0
LINE
  5
70
100
AcDbEntity
100
AcDbLine
  8
0
 62
256
370
-1
  6
BYLAYER
 10
1.4999999999999056
 20
96.0000000000000568
 30
0.0
 11
9.9999999999999059
 21
66.0000000000000711
 31
0.0
  0
LINE
  5
71
100
AcDbEntity
100
AcDbLine
  8
0
 62
256
370
-1
  6
BYLAYER
 10
9.9999999999999059
 20
66.0000000000000711
 30
0.0
 11
19.9999999999999076
 21
66.0000000000000711
 31
0.0
  0
LINE
  5
72
100
AcDbEntity
100
AcDbLine
  8
0
 62
256
370
-1
  6
BYLAYER
 10
19.9999999999999076
 20
66.0000000000000711
 30
0.0
 11
19.9999999999999005
 21
86.0000000000000853
 31
0.0
  0
LINE
  5
73
100
AcDbEntity
100
AcDbLine
  8
0
 62
256
370
-1
  6
BYLAYER
 10
36.9949366624175653
 20
84.5908497752095343
 30
0.0
 11
36.9949366624155331
 21
84.5908497752074879
 31
0.0
  0
LINE
  5
74
100
AcDbEntity
100
AcDbLine
  8
0
 62
256
370
-1
  6
BYLAYER
 10
109.9999999999999005
 20
66.0000000000000995
 30
0.0
 11
99.9999999999999005
 21
66.0000000000000711
 31
0.0
  0
LINE
  5
75
100
AcDbEntity
100
AcDbLine
  8
0
 62
256
370
-1
  6
BYLAYER
 10
99.9999999999999005
 20
66.0000000000000711
 30
0.0
 11
99.9999999999998721
 21
86.0000000000001137
 31
0.0
  0
LINE
  5
76
100
AcDbEntity
100
AcDbLine
  8
0
 62
256
370
-1
  6
BYLAYER
 10
94.9999999999998721
 20
116.0000000000001137
 30
0.0
 11
115.9999999999896971
 21
116.0000000000001137
 31
0.0
  0
LINE
  5
77
100
AcDbEntity
100
AcDbLine
  8
0
 62
256
370
-1
  6
BYLAYER
 10
19.9999999999999005
 20
86.0000000000000853
 30
0.0
 11
39.9999999999999218
 21
86.0000000000000568
 31
0.0
  0
LINE
  5
78
100
AcDbEntity
100
AcDbLine
  8
0
 62
256
370
-1
  6
BYLAYER
 10
1.4999999999999056
 20
113.6000000000000796
 30
0.0
 11
1.4999999999999056
 21
96.0000000000000568
 31
0.0
  0
LINE
  5
79
100
AcDbEntity
100
AcDbLine
  8
0
 62
256
370
-1
  6
BYLAYER
 10
39.9999999999999218
 20
86.0000000000000568
 30
0.0
 11
40.0
 21
90.0000000000001705
 31
0.0
  0
LINE
  5
7A
100
AcDbEntity
100
AcDbLine
  8
0
 62
256
370
-1
  6
BYLAYER
 10
39.9999999999999218
 20
86.0000000000000568
 30
0.0
 11
39.9999999999999218
 21
86.0000000000000568
 31
0.0
  0
LINE
  5
7B
100
AcDbEntity
100
AcDbLine
  8
0
 62
256
370
-1
  6
BYLAYER
 10
49.9999999999999076
 20
86.0000000000000853
 30
0.0
 11
69.9999999999999005
 21
86.0000000000000853
 31
0.0
  0
LINE
  5
7C
100
AcDbEntity
100
AcDbLine
  8
0
 62
256
370
-1
  6
BYLAYER
 10
49.9999999999999432
 20
90.000000000000199
 30
0.0
 11
49.9999999999998934
 21
86.0000000000001137
 31
0.0
  0
LINE
  5
7D
100
AcDbEntity
100
AcDbLine
  8
0
 62
256
370
-1
  6
BYLAYER
 10
29.9999999999999964
 20
71.1462994892367817
 30
0.0
 11
29.9999999999999964
 21
51.1462994892367959
 31
0.0
  0
LINE
  5
7E
100
AcDbEntity
100
AcDbLine
  8
0
 62
256
370
-1
  6
BYLAYER
 10
47.8954451971505009
 20
62.6462994892367675
 30
0.0
 11
73.8954451971504938
 21
62.6462994892367391
 31
0.0
  0
LINE
  5
7F
100
AcDbEntity
100
AcDbLine
  8
0
 62
256
370
-1
  6
BYLAYER
 10
47.8954451971505009
 20
59.6462994892367675
 30
0.0
 11
73.8954451971505222
 21
59.6462994892367391
 31
0.0
  0
LINE
  5
80
100
AcDbEntity
100
AcDbLine
  8
0
 62
256
370
-1
  6
BYLAYER
 10
92.0
 20
71.1462994892368101
 30
0.0
 11
92.0
 21
51.1462994892367817
 31
0.0
  0
LINE
  5
81
100
AcDbEntity
100
AcDbLine
  8
0
 62
256
370
-1
  6
BYLAYER
 10
58.0000000000000213
 20
93.0000000000001705
 30
0.0
 11
62.0000000000000284
 21
93.0000000000001705
 31
0.0
  0
LINE
  5
82
100
AcDbEntity
100
AcDbLine
  8
0
 62
256
370
-1
  6
BYLAYER
 10
58.0
 20
103.0000000000001705
 30
0.0
 11
58.0000000000000213
 21
93.0000000000001705
 31
0.0
  0
LINE
  5
83
100
AcDbEntity
100
AcDbLine
  8
0
 62
256
370
-1
  6
BYLAYER
 10
40.0
 20
90.0000000000001705
 30
0.0
 11
49.9999999999999432
 21
90.000000000000199
 31
0.0
  0
LINE
  5
84
100
AcDbEntity
100
AcDbLine
  8
0
 62
256
370
-1
  6
BYLAYER
 10
62.0000000000000284
 20
93.0000000000001705
 30
0.0
 11
62.0
 21
103.0000000000001705
 31
0.0
  0
LINE
  5
85
100
AcDbEntity
100
AcDbLine
  8
0
 62
256
370
-1
  6
BYLAYER
 10
58.0
 20
103.0000000000001705
 30
0.0
 11
62.0
 21
103.0000000000001705
 31
0.0
  0
LINE
  5
86
100
AcDbEntity
100
AcDbLine
  8
0
 62
256
370
-1
  6
BYLAYER
 10
70.0
 20
90.0000000000001705
 30
0.0
 11
80.0000000000000284
 21
90.000000000000199
 31
0.0
  0
LINE
  5
87
100
AcDbEntity
100
AcDbLine
  8
0
 62
256
370
-1
  6
BYLAYER
 10
94.9999999999998721
 20
116.0000000000001137
 30
0.0
 11
89.9999999999999005
 21
111.0000000000001137
 31
0.0
  0
LINE
  5
88
100
AcDbEntity
100
AcDbLine
  8
0
 62
256
370
-1
  6
BYLAYER
 10
89.9999999999999005
 20
111.0000000000001137
 30
0.0
 11
54.9999999999999076
 21
111.0000000000001137
 31
0.0
  0
LINE
  5
89
100
AcDbEntity
100
AcDbLine
  8
0
 62
256
370
-1
  6
BYLAYER
 10
54.9999999999999076
 20
111.0000000000001137
 30
0.0
 11
50.9999999999999076
 21
119.0000000000001137
 31
0.0
  0
LINE
  5
8A
100
AcDbEntity
100
AcDbLine
  8
0
 62
256
370
-1
  6
BYLAYER
 10
38.9999999999999076
 20
119.0000000000001137
 30
0.0
 11
34.9999999999999076
 21
111.0000000000001137
 31
0.0
  0
LINE
  5
8B
100
AcDbEntity
100
AcDbLine
  8
0
 62
256
370
-1
  6
BYLAYER
 10
34.9999999999999076
 20
111.0000000000001137
 30
0.0
 11
29.9999999999999076
 21
111.0000000000001137
 31
0.0
  0
LINE
  5
8C
100
AcDbEntity
100
AcDbLine
  8
0
 62
256
370
-1
  6
BYLAYER
 10
29.9999999999999076
 20
111.0000000000001137
 30
0.0
 11
24.9999999999998863
 21
116.0000000000001137
 31
0.0
  0
CIRCLE
  5
8D
100
AcDbEntity
100
AcDbCircle
  8
0
 62
256
370
-1
  6
BYLAYER
 10
44.9999999999999076
 20
115.0000000000001137
 30
0.0
 40
2.0
  0
ARC
  5
8E
100
AcDbEntity
  8
0
 62
256
370
-1
  6
BYLAYER
100
AcDbCircle
 10
3.9499999999999087
 20
113.5500000000000682
 30
0.0
 40
2.4505101509685727
100
AcDbArc
 50
88.8308606720926548
 51
178.8308606720919158
  0
ARC
  5
8F
100
AcDbEntity
  8
0
 62
256
370
-1
  6
BYLAYER
100
AcDbCircle
 10
116.0499999999997698
 20
113.5500000000002956
 30
0.0
 40
2.4505101509685727
100
AcDbArc
 50
1.1691393279083799
 51
91.1691393279076294
  0
LINE
  5
90
100
AcDbEntity
100
AcDbLine
  8
0
 62
256
370
-1
  6
BYLAYER
 10
118.4999999999997584
 20
113.6000000000003638
 30
0.0
 11
118.4999999999998437
 21
96.0000000000003411
 31
0.0
  0
LINE
  5
91
100
AcDbEntity
100
AcDbLine
  8
0
 62
256
370
-1
  6
BYLAYER
 10
118.4999999999998437
 20
96.0000000000003411
 30
0.0
 11
109.9999999999999858
 21
66.0000000000003411
 31
0.0
  0
LINE
  5
92
100
AcDbEntity
100
AcDbLine
  8
0
 62
256
370
-1
  6
BYLAYER
 10
118.5000000000000853
 20
8.4000000000004924
 30
0.0
 11
118.4999999999999574
 21
26.0000000000004867
 31
0.0
  0
ARC
  5
93
100
AcDbEntity
  8
0
 62
256
370
-1
  6
BYLAYER
100
AcDbCircle
 10
116.0500000000000966
 20
8.4500000000005429
 30
0.0
 40
2.4505101509685727
100
AcDbArc
 50
268.8308606720930243
 51
358.8308606720922285
  0
ARC
  5
94
100
AcDbEntity
  8
0
 62
256
370
-1
  6
BYLAYER
100
AcDbCircle
 10
3.9500000000002089
 20
8.4499999999995126
 30
0.0
 40
2.4505101509685727
100
AcDbArc
 50
181.169139327908681
 51
271.1691393279080557
  0
LINE
  5
95
100
AcDbEntity
100
AcDbLine
  8
0
 62
256
370
-1
  6
BYLAYER
 10
1.5000000000002274
 20
8.399999999999423
 30
0.0
 11
1.5000000000000213
 21
25.9999999999994706
 31
0.0
  0
LINE
  5
96
100
AcDbEntity
100
AcDbLine
  8
0
 62
256
370
-1
  6
BYLAYER
 10
1.5000000000000213
 20
25.9999999999994706
 30
0.0
 11
9.9999999999996732
 21
55.9999999999995168
 31
0.0
  0
LINE
  5
97
100
AcDbEntity
100
AcDbLine
  8
0
 62
256
370
-1
  6
BYLAYER
 10
25.0000000000000995
 20
5.9999999999998579
 30
0.0
 11
30.0000000000000746
 21
10.9999999999998757
 31
0.0
  0
LINE
  5
98
100
AcDbEntity
100
AcDbLine
  8
0
 62
256
370
-1
  6
BYLAYER
 10
90.0000000000000284
 20
11.0000000000001492
 30
0.0
 11
54.9999999999999858
 21
11.0000000000000853
 31
0.0
  0
CIRCLE
  5
99
100
AcDbEntity
100
AcDbCircle
  8
0
 62
256
370
-1
  6
BYLAYER
 10
107.0000000000000426
 20
17.0000000000004334
 30
0.0
 40
3.5
  0
CIRCLE
  5
9A
100
AcDbEntity
100
AcDbCircle
  8
0
 62
256
370
-1
  6
BYLAYER
 10
106.9999999999999432
 20
28.3137084989851537
 30
0.0
 40
2.0
  0
CIRCLE
  5
9B
100
AcDbEntity
100
AcDbCircle
  8
0
 62
256
370
-1
  6
BYLAYER
 10
98.0050633375825271
 20
8.4091502247910306
 30
0.0
 40
1.5
  0
LINE
  5
9C
100
AcDbEntity
100
AcDbLine
  8
0
 62
256
370
-1
  6
BYLAYER
 10
54.9999999999999858
 20
11.0000000000000853
 30
0.0
 11
50.0000000000000426
 21
1.0000000000000746
 31
0.0
  0
CIRCLE
  5
9D
100
AcDbEntity
100
AcDbCircle
  8
0
 62
256
370
-1
  6
BYLAYER
 10
116.0050633375825271
 20
8.4091502247911514
 30
0.0
 40
1.5
  0
LINE
  5
9E
100
AcDbEntity
100
AcDbLine
  8
0
 62
256
370
-1
  6
BYLAYER
 10
50.0000000000000426
 20
1.0000000000000746
 30
0.0
 11
40.0000000000000426
 21
1.0000000000000604
 31
0.0
  0
CIRCLE
  5
9F
100
AcDbEntity
100
AcDbCircle
  8
0
 62
256
370
-1
  6
BYLAYER
 10
13.0000000000000355
 20
16.9999999999997371
 30
0.0
 40
2.0
  0
LINE
  5
A0
100
AcDbEntity
100
AcDbLine
  8
0
 62
256
370
-1
  6
BYLAYER
 10
95.0000000000001137
 20
6.0000000000003375
 30
0.0
 11
116.0000000000000995
 21
6.000000000000469
 31
0.0
  0
LINE
  5
A1
100
AcDbEntity
100
AcDbLine
  8
0
 62
256
370
-1
  6
BYLAYER
 10
118.4999999999999574
 20
26.0000000000004867
 30
0.0
 11
109.9999999999997442
 21
56.0000000000004547
 31
0.0
  0
LINE
  5
A2
100
AcDbEntity
100
AcDbLine
  8
0
 62
256
370
-1
  6
BYLAYER
 10
40.0000000000000426
 20
1.0000000000000604
 30
0.0
 11
35.0000000000000142
 21
11.0000000000000568
 31
0.0
  0
LINE
  5
A3
100
AcDbEntity
100
AcDbLine
  8
0
 62
256
370
-1
  6
BYLAYER
 10
35.0000000000000142
 20
11.0000000000000568
 30
0.0
 11
30.0000000000000391
 21
11.0000000000000249
 31
0.0
  0
LINE
  5
A4
100
AcDbEntity
100
AcDbLine
  8
0
 62
256
370
-1
  6
BYLAYER
 10
90.0000000000000711
 20
11.0000000000002984
 30
0.0
 11
95.0000000000001137
 21
6.0000000000003375
 31
0.0
  0
CIRCLE
  5
A5
100
AcDbEntity
100
AcDbCircle
  8
0
 62
256
370
-1
  6
BYLAYER
 10
45.0000000000000568
 20
7.0000000000000497
 30
0.0
 40
2.0
  0
LINE
  5
A6
100
AcDbEntity
100
AcDbLine
  8
0
 62
256
370
-1
  6
BYLAYER
 10
25.0000000000000995
 20
5.9999999999998579
 30
0.0
 11
4.0000000000103242
 21
5.9999999999996518
 31
0.0
  0
LINE
  5
A7
100
AcDbEntity
100
AcDbLine
  8
0
 62
256
370
-1
  6
BYLAYER
 10
37.9999999999999076
 20
113.0000000000001137
 30
0.0
 11
42.0
 21
113.0000000000001705
 31
0.0
  0
LINE
  5
A8
100
AcDbEntity
100
AcDbLine
  8
0
 62
256
370
-1
  6
BYLAYER
 10
42.0
 20
113.0000000000001705
 30
0.0
 11
42.0
 21
108.0000000000001705
 31
0.0
  0
LINE
  5
A9
100
AcDbEntity
100
AcDbLine
  8
0
 62
256
370
-1
  6
BYLAYER
 10
42.0
 20
108.0000000000001705
 30
0.0
 11
37.9999999999999076
 21
108.0000000000001137
 31
0.0
  0
LINE
  5
AA
100
AcDbEntity
100
AcDbLine
  8
0
 62
256
370
-1
  6
BYLAYER
 10
37.9999999999999076
 20
108.0000000000001137
 30
0.0
 11
37.9999999999999076
 21
113.0000000000001137
 31
0.0
  0
LINE
  5
AB
100
AcDbEntity
100
AcDbLine
  8
0
 62
256
370
-1
  6
BYLAYER
 10
48.0
 20
113.0000000000001705
 30
0.0
 11
51.9999999999999076
 21
113.0000000000001137
 31
0.0
  0
LINE
  5
AC
100
AcDbEntity
100
AcDbLine
  8
0
 62
256
370
-1
  6
BYLAYER
 10
51.9999999999999076
 20
113.0000000000001137
 30
0.0
 11
51.9999999999999076
 21
108.0000000000001137
 31
0.0
  0
LINE
  5
AD
100
AcDbEntity
100
AcDbLine
  8
0
 62
256
370
-1
  6
BYLAYER
 10
51.9999999999999076
 20
108.0000000000001137
 30
0.0
 11
48.0
 21
108.0000000000001705
 31
0.0
  0
LINE
  5
AE
100
AcDbEntity
100
AcDbLine
  8
0
 62
256
370
-1
  6
BYLAYER
 10
48.0
 20
108.0000000000001705
 30
0.0
 11
48.0
 21
113.0000000000001705
 31
0.0
  0
LINE
  5
AF
100
AcDbEntity
100
AcDbLine
  8
0
 62
256
370
-1
  6
BYLAYER
 10
38.9999999999999076
 20
119.0000000000001137
 30
0.0
 11
50.9999999999999076
 21
119.0000000000001137
 31
0.0
  0
LINE
  5
B0
100
AcDbEntity
100
AcDbLine
  8
0
 62
256
370
-1
  6
BYLAYER
 10
47.8954451971505009
 20
62.6462994892367675
 30
0.0
 11
47.8954451971505009
 21
59.6462994892367675
 31
0.0
  0
LINE
  5
B1
100
AcDbEntity
100
AcDbLine
  8
0
 62
256
370
-1
  6
BYLAYER
 10
73.8954451971504938
 20
62.6462994892367391
 30
0.0
 11
73.8954451971505222
 21
59.6462994892367391
 31
0.0
  0
LINE
  5
B2
100
AcDbEntity
100
AcDbLine
  8
0
 62
256
370
-1
  6
BYLAYER
 10
121.8776248441433552
 20
27.1629743291990309
 30
0.0
 11
131.8776248441433552
 21
27.1629743291990593
 31
0.0
  0
LINE
  5
B3
100
AcDbEntity
100
AcDbLine
  8
0
 62
256
370
-1
  6
BYLAYER
 10
121.8776248441433552
 20
97.1629743291990309
 30
0.0
 11
131.8776248441432983
 21
97.1629743291990309
 31
0.0
  0
LINE
  5
B4
100
AcDbEntity
100
AcDbLine
  8
0
 62
256
370
-1
  6
BYLAYER
 10
48.0
 20
14.000000000000167
 30
0.0
 11
48.0000000000000426
 21
9.0000000000001634
 31
0.0
  0
LINE
  5
B5
100
AcDbEntity
100
AcDbLine
  8
0
 62
256
370
-1
  6
BYLAYER
 10
38.0000000000000426
 20
8.9999999999999964
 30
0.0
 11
42.0000000000000284
 21
9.0000000000001741
 31
0.0
  0
LINE
  5
B6
100
AcDbEntity
100
AcDbLine
  8
0
 62
256
370
-1
  6
BYLAYER
 10
42.0000000000000284
 20
9.0000000000001741
 30
0.0
 11
42.0
 21
14.000000000000167
 31
0.0
  0
LINE
  5
B7
100
AcDbEntity
100
AcDbLine
  8
0
 62
256
370
-1
  6
BYLAYER
 10
42.0
 20
14.000000000000167
 30
0.0
 11
37.9999999999999858
 21
14.0000000000000142
 31
0.0
  0
LINE
  5
B8
100
AcDbEntity
100
AcDbLine
  8
0
 62
256
370
-1
  6
BYLAYER
 10
37.9999999999999858
 20
14.0000000000000142
 30
0.0
 11
38.0000000000000426
 21
8.9999999999999964
 31
0.0
  0
LINE
  5
B9
100
AcDbEntity
100
AcDbLine
  8
0
 62
256
370
-1
  6
BYLAYER
 10
48.0000000000000426
 20
9.0000000000001634
 30
0.0
 11
52.0000000000000284
 21
9.0000000000001066
 31
0.0
  0
LINE
  5
BA
100
AcDbEntity
100
AcDbLine
  8
0
 62
256
370
-1
  6
BYLAYER
 10
52.0000000000000284
 20
9.0000000000001066
 30
0.0
 11
51.9999999999999858
 21
14.0000000000001066
 31
0.0
  0
LINE
  5
BB
100
AcDbEntity
100
AcDbLine
  8
0
 62
256
370
-1
  6
BYLAYER
 10
51.9999999999999858
 20
14.0000000000001066
 30
0.0
 11
48.0
 21
14.000000000000167
 31
0.0
  0
LINE
  5
BC
100
AcDbEntity
100
AcDbLine
  8
0
 62
256
370
-1
  6
BYLAYER
 10
62.0
 20
29.000000000000167
 30
0.0
 11
58.0
 21
29.000000000000167
 31
0.0
  0
LINE
  5
BD
100
AcDbEntity
100
AcDbLine
  8
0
 62
256
370
-1
  6
BYLAYER
 10
62.0000000000001066
 20
19.000000000000167
 30
0.0
 11
62.0
 21
29.000000000000167
 31
0.0
  0
LINE
  5
BE
100
AcDbEntity
100
AcDbLine
  8
0
 62
256
370
-1
  6
BYLAYER
 10
49.9999999999999005
 20
36.0000000000000568
 30
0.0
 11
50.0000000000000284
 21
32.0000000000002984
 31
0.0
  0
LINE
  5
BF
100
AcDbEntity
100
AcDbLine
  8
0
 62
256
370
-1
  6
BYLAYER
 10
79.9999999999999432
 20
32.0000000000002558
 30
0.0
 11
70.0
 21
32.0000000000001705
 31
0.0
  0
LINE
  5
C0
100
AcDbEntity
100
AcDbLine
  8
0
 62
256
370
-1
  6
BYLAYER
 10
49.9999999999999005
 20
36.0000000000000568
 30
0.0
 11
49.9999999999999005
 21
36.0000000000000568
 31
0.0
  0
LINE
  5
C1
100
AcDbEntity
100
AcDbLine
  8
0
 62
256
370
-1
  6
BYLAYER
 10
58.0
 20
29.000000000000167
 30
0.0
 11
58.0000000000000924
 21
19.0000000000001741
 31
0.0
  0
LINE
  5
C2
100
AcDbEntity
100
AcDbLine
  8
0
 62
256
370
-1
  6
BYLAYER
 10
40.0
 20
32.0000000000001705
 30
0.0
 11
39.9999999999999005
 21
35.9999999999999716
 31
0.0
  0
LINE
  5
C3
100
AcDbEntity
100
AcDbLine
  8
0
 62
256
370
-1
  6
BYLAYER
 10
62.0000000000001066
 20
19.000000000000167
 30
0.0
 11
58.0000000000000924
 21
19.0000000000001741
 31
0.0
  0
LINE
  5
C4
100
AcDbEntity
100
AcDbLine
  8
0
 62
256
370
-1
  6
BYLAYER
 10
50.0000000000000284
 20
32.0000000000002984
 30
0.0
 11
40.0
 21
32.0000000000001705
 31
0.0
  0
LINE
  5
C5
100
AcDbEntity
100
AcDbLine
  8
0
 62
256
370
-1
  6
BYLAYER
 10
79.9999999999998863
 20
36.0000000000002558
 30
0.0
 11
79.9999999999999432
 21
32.0000000000002558
 31
0.0
  0
LINE
  5
C6
100
AcDbEntity
100
AcDbLine
  8
0
 62
256
370
-1
  6
BYLAYER
 10
79.9999999999998863
 20
36.0000000000002558
 30
0.0
 11
79.9999999999998863
 21
36.0000000000002558
 31
0.0
  0
LINE
  5
C7
100
AcDbEntity
100
AcDbLine
  8
0
 62
256
370
-1
  6
BYLAYER
 10
69.9999999999998863
 20
36.0000000000001847
 30
0.0
 11
49.9999999999999005
 21
36.0000000000000568
 31
0.0
  0
LINE
  5
C8
100
AcDbEntity
100
AcDbLine
  8
0
 62
256
370
-1
  6
BYLAYER
 10
70.0
 20
32.0000000000001705
 30
0.0
 11
69.9999999999999147
 21
36.0000000000001847
 31
0.0
  0
LINE
  5
C9
100
AcDbEntity
100
AcDbLine
  8
0
 62
256
370
-1
  6
BYLAYER
 10
65.9999999999999005
 20
132.0000000000001137
 30
0.0
 11
65.9999999999999005
 21
128.0000000000001137
 31
0.0
  0
LINE
  5
CA
100
AcDbEntity
100
AcDbLine
  8
0
 62
256
370
-1
  6
BYLAYER
 10
65.9999999999999005
 20
128.0000000000001137
 30
0.0
 11
70.0
 21
128.0
 31
0.0
  0
LINE
  5
CB
100
AcDbEntity
100
AcDbLine
  8
0
 62
256
370
-1
  6
BYLAYER
 10
70.0
 20
128.0
 30
0.0
 11
70.0
 21
124.0000000000001847
 31
0.0
  0
LINE
  5
CC
100
AcDbEntity
100
AcDbLine
  8
0
 62
256
370
-1
  6
BYLAYER
 10
70.0
 20
123.0000000000001137
 30
0.0
 11
65.9999999999999005
 21
123.0000000000001137
 31
0.0
  0
LINE
  5
CD
100
AcDbEntity
100
AcDbLine
  8
0
 62
256
370
-1
  6
BYLAYER
 10
65.9999999999999005
 20
123.0000000000001137
 30
0.0
 11
65.9999999999999005
 21
121.0000000000001705
 31
0.0
  0
LINE
  5
CE
100
AcDbEntity
100
AcDbLine
  8
0
 62
256
370
-1
  6
BYLAYER
 10
65.9999999999999005
 20
120.0000000000001137
 30
0.0
 11
3.9999999999999059
 21
120.0000000000001137
 31
0.0
  0
LINE
  5
CF
100
AcDbEntity
100
AcDbLine
  8
0
 62
256
370
-1
  6
BYLAYER
 10
3.9999999999999059
 20
120.0000000000001137
 30
0.0
 11
3.9999999999999059
 21
123.0000000000001137
 31
0.0
  0
LINE
  5
D0
100
AcDbEntity
100
AcDbLine
  8
0
 62
256
370
-1
  6
BYLAYER
 10
3.9999999999999059
 20
123.0000000000001137
 30
0.0
 11
0.0
 21
123.0
 31
0.0
  0
LINE
  5
D1
100
AcDbEntity
100
AcDbLine
  8
0
 62
256
370
-1
  6
BYLAYER
 10
0.0
 20
123.0
 30
0.0
 11
0.0
 21
128.0
 31
0.0
  0
LINE
  5
D2
100
AcDbEntity
100
AcDbLine
  8
0
 62
256
370
-1
  6
BYLAYER
 10
0.0
 20
128.0
 30
0.0
 11
3.9999999999999059
 21
128.0000000000001137
 31
0.0
  0
LINE
  5
D3
100
AcDbEntity
100
AcDbLine
  8
0
 62
256
370
-1
  6
BYLAYER
 10
3.9999999999999059
 20
128.0000000000001137
 30
0.0
 11
3.9999999999999059
 21
132.0000000000001137
 31
0.0
  0
ARC
  5
D4
100
AcDbEntity
  8
0
 62
256
370
-1
  6
BYLAYER
100
AcDbCircle
 10
34.9999999999999076
 20
188.0625000000014211
 30
0.0
 40
64.0625000000011369
100
AcDbArc
 50
241.0594117998688262
 51
298.9405882001311738
  0
LINE
  5
D5
100
AcDbEntity
100
AcDbLine
  8
0
 62
256
370
-1
  6
BYLAYER
 10
70.0
 20
121.0000000000001705
 30
0.0
 11
65.9999999999999005
 21
121.0000000000001705
 31
0.0
  0
LINE
  5
D6
100
AcDbEntity
100
AcDbLine
  8
0
 62
256
370
-1
  6
BYLAYER
 10
65.9999999999999005
 20
121.0000000000001705
 30
0.0
 11
65.9999999999999005
 21
116.0000000000001705
 31
0.0
  0
LINE
  5
D7
100
AcDbEntity
100
AcDbLine
  8
0
 62
256
370
-1
  6
BYLAYER
 10
65.9999999999999005
 20
116.0000000000001705
 30
0.0
 11
70.0
 21
116.0000000000001705
 31
0.0
  0
LINE
  5
D8
100
AcDbEntity
100
AcDbLine
  8
0
 62
256
370
-1
  6
BYLAYER
 10
70.0
 20
116.0000000000001705
 30
0.0
 11
70.0
 21
112.0000000000001705
 31
0.0
  0
ARC
  5
D9
100
AcDbEntity
  8
0
 62
256
370
-1
  6
BYLAYER
100
AcDbCircle
 10
101.0
 20
55.9374999999988631
 30
0.0
 40
64.0625000000011369
100
AcDbArc
 50
61.0594117998688048
 51
118.9405882001312307
  0
LINE
  5
DA
100
AcDbEntity
100
AcDbLine
  8
0
 62
256
370
-1
  6
BYLAYER
 10
132.0
 20
112.0000000000001705
 30
0.0
 11
132.0
 21
116.0000000000003411
 31
0.0
  0
LINE
  5
DB
100
AcDbEntity
100
AcDbLine
  8
0
 62
256
370
-1
  6
BYLAYER
 10
132.0
 20
116.0000000000003411
 30
0.0
 11
136.0
 21
116.0000000000003411
 31
0.0
  0
LINE
  5
DC
100
AcDbEntity
100
AcDbLine
  8
0
 62
256
370
-1
  6
BYLAYER
 10
136.0
 20
116.0000000000003411
 30
0.0
 11
136.0
 21
121.0
 31
0.0
  0
LINE
  5
DD
100
AcDbEntity
100
AcDbLine
  8
0
 62
256
370
-1
  6
BYLAYER
 10
136.0
 20
121.0
 30
0.0
 11
132.0
 21
120.9999999999999432
 31
0.0
  0
LINE
  5
DE
100
AcDbEntity
100
AcDbLine
  8
0
 62
256
370
-1
  6
BYLAYER
 10
132.0
 20
120.9999999999999432
 30
0.0
 11
132.0
 21
124.0000000000002274
 31
0.0
  0
LINE
  5
DF
100
AcDbEntity
100
AcDbLine
  8
0
 62
256
370
-1
  6
BYLAYER
 10
132.0
 20
124.0000000000002274
 30
0.0
 11
70.0
 21
124.0000000000001705
 31
0.0
  0
LINE
  5
E0
100
AcDbEntity
100
AcDbLine
  8
0
 62
256
370
-1
  6
BYLAYER
 10
70.0
 20
124.0000000000001705
 30
0.0
 11
70.0
 21
121.0000000000001705
 31
0.0
  0
ENDSEC
  0
SECTION
  2
OBJECTS
  0
DICTIONARY
  5
C
100
AcDbDictionary
280
0
281
1
  3
ACAD_GROUP
350
D
  3
ACAD_LAYOUT
350
1A
  3
ACAD_MLINESTYLE
350
17
  3
ACAD_PLOTSETTINGS
350
19
  3
ACAD_PLOTSTYLENAME
350
E
  3
AcDbVariableDictionary
350
E1
  3
QCAD_OBJECTS
350
E2
  0
DICTIONARY
  5
D
100
AcDbDictionary
280
0
281
1
  0
ACDBDICTIONARYWDFLT
  5
E
100
AcDbDictionary
281
1
  3
Normal
350
F
100
AcDbDictionaryWithDefault
340
F
  0
ACDBPLACEHOLDER
  5
F
  0
DICTIONARY
  5
17
100
AcDbDictionary
280
0
281
1
  3
Standard
350
18
  0
MLINESTYLE
  5
18
100
AcDbMlineStyle
  2
STANDARD
 70
0
  3

 62
256
 51
90.0
 52
90.0
 71
2
 49
0.5
 62
256
  6
BYLAYER
 49
-0.5
 62
256
  6
BYLAYER
  0
DICTIONARY
  5
19
100
AcDbDictionary
280
0
281
1
  0
DICTIONARY
  5
1A
100
AcDbDictionary
281
1
  3
Layout1
350
1E
  3
Layout2
350
26
  3
Model
350
22
  0
LAYOUT
  5
1E
100
AcDbPlotSettings
  1

  2
C:\Program Files\AutoCAD 2002\plotters\DWF ePlot (optimized for plotting).pc3
  4

  6

 40
0.0
 41
0.0
 42
0.0
 43
0.0
 44
0.0
 45
0.0
 46
0.0
 47
0.0
 48
0.0
 49
0.0
140
0.0
141
0.0
142
1.0
143
1.0
 70
688
 72
0
 73
0
 74
5
  7

 75
16
147
1.0
148
0.0
149
0.0
100
AcDbLayout
  1
Layout1
 70
1
 71
1
 10
0.0
 20
0.0
 11
420.0
 21
297.0
 12
0.0
 22
0.0
 32
0.0
 14
100000000000000000000.0
 24
100000000000000000000.0
 34
100000000000000000000.0
 15
-100000000000000000000.0
 25
-100000000000000000000.0
 35
-100000000000000000000.0
146
0.0
 13
0.0
 23
0.0
 33
0.0
 16
1.0
 26
0.0
 36
0.0
 17
0.0
 27
1.0
 37
0.0
 76
0
330
1B
  0
LAYOUT
  5
22
100
AcDbPlotSettings
  1

  2
C:\Program Files\AutoCAD 2002\plotters\DWF ePlot (optimized for plotting).pc3
  4

  6

 40
0.0
 41
0.0
 42
0.0
 43
0.0
 44
0.0
 45
0.0
 46
0.0
 47
0.0
 48
0.0
 49
0.0
140
0.0
141
0.0
142
1.0
143
1.0
 70
1712
 72
0
 73
0
 74
0
  7

 75
0
147
1.0
148
0.0
149
0.0
100
AcDbLayout
  1
Model
 70
1
 71
0
 10
0.0
 20
0.0
 11
12.0
 21
9.0
 12
0.0
 22
0.0
 32
0.0
 14
0.0
 24
0.0
 34
0.0
 15
0.0
 25
0.0
 35
0.0
146
0.0
 13
0.0
 23
0.0
 33
0.0
 16
1.0
 26
0.0
 36
0.0
 17
0.0
 27
1.0
 37
0.0
 76
0
330
1F
  0
LAYOUT
  5
26
100
AcDbPlotSettings
  1

  2
C:\Program Files\AutoCAD 2002\plotters\DWF ePlot (optimized for plotting).pc3
  4

  6

 40
0.0
 41
0.0
 42
0.0
 43
0.0
 44
0.0
 45
0.0
 46
0.0
 47
0.0
 48
0.0
 49
0.0
140
0.0
141
0.0
142
1.0
143
1.0
 70
688
 72
0
 73
0
 74
5
  7

 75
16
147
1.0
148
0.0
149
0.0
100
AcDbLayout
  1
Layout2
 70
1
 71
2
 10
0.0
 20
0.0
 11
12.0
 21
9.0
 12
0.0
 22
0.0
 32
0.0
 14
0.0
 24
0.0
 34
0.0
 15
0.0
 25
0.0
 35
0.0
146
0.0
 13
0.0
 23
0.0
 33
0.0
 16
1.0
 26
0.0
 36
0.0
 17
0.0
 27
1.0
 37
0.0
 76
0
330
23
  0
DICTIONARY
  5
E1
100
AcDbDictionary
281
1
  3
DIMASSOC
350
E4
  3
HIDETEXT
350
E3
  0
DICTIONARYVAR
  5
E3
100
DictionaryVariables
280
0
  1
2
  0
DICTIONARYVAR
  5
E4
100
DictionaryVariables
280
0
  1
1
  0
DICTIONARY
  5
E2
100
AcDbDictionary
281
1
  3
Grid/DisplayGrid00
350
E5
  3
Grid/DisplayGrid01
350
E6
  3
Grid/DisplayGrid02
350
E7
  3
Grid/DisplayGrid03
350
E8
  3
Grid/GridSpacingX00
350
E9
  3
Grid/GridSpacingX01
350
EA
  3
Grid/GridSpacingX02
350
EB
  3
Grid/GridSpacingX03
350
EC
  3
Grid/GridSpacingY00
350
ED
  3
Grid/GridSpacingY01
350
EE
  3
Grid/GridSpacingY02
350
EF
  3
Grid/GridSpacingY03
350
F0
  3
Grid/IsometricGrid00
350
F1
  3
Grid/IsometricGrid01
350
F2
  3
Grid/IsometricGrid02
350
F3
  3
Grid/IsometricGrid03
350
F4
  3
Grid/IsometricProjection00
350
F5
  3
Grid/IsometricProjection01
350
F6
  3
Grid/IsometricProjection02
350
F7
  3
Grid/IsometricProjection03
350
F8
  3
Grid/MetaGridSpacingX00
350
F9
  3
Grid/MetaGridSpacingX01
350
FA
  3
Grid/MetaGridSpacingX02
350
FB
  3
Grid/MetaGridSpacingX03
350
FC
  3
Grid/MetaGridSpacingY00
350
FD
  3
Grid/MetaGridSpacingY01
350
FE
  3
Grid/MetaGridSpacingY02
350
FF
  3
Grid/MetaGridSpacingY03
350
100
  3
MultiPageSettings/Columns
350
101
  3
MultiPageSettings/GlueMarginsBottom
350
102
  3
MultiPageSettings/GlueMarginsLeft
350
103
  3
MultiPageSettings/GlueMarginsRight
350
104
  3
MultiPageSettings/GlueMarginsTop
350
105
  3
MultiPageSettings/PrintCropMarks
350
106
  3
MultiPageSettings/Rows
350
107
  3
PageSettings/OffsetX
350
108
  3
PageSettings/OffsetY
350
109
  3
PageSettings/PageOrientation
350
10A
  3
PageSettings/PaperHeight
350
10B
  3
PageSettings/PaperWidth
350
10C
  3
PageSettings/Scale
350
10D
  3
PageSettings/ShowPaperBorders
350
10E
  3
UnitSettings/PaperUnit
350
10F
  0
XRECORD
  5
E5
330
E2
100
AcDbXrecord
280
1
290
1
  0
XRECORD
  5
E6
330
E2
100
AcDbXrecord
280
1
290
1
  0
XRECORD
  5
E7
330
E2
100
AcDbXrecord
280
1
290
1
  0
XRECORD
  5
E8
330
E2
100
AcDbXrecord
280
1
290
1
  0
XRECORD
  5
E9
330
E2
100
AcDbXrecord
280
1
1000
auto
  0
XRECORD
  5
EA
330
E2
100
AcDbXrecord
280
1
1000
auto
  0
XRECORD
  5
EB
330
E2
100
AcDbXrecord
280
1
1000
auto
  0
XRECORD
  5
EC
330
E2
100
AcDbXrecord
280
1
1000
auto
  0
XRECORD
  5
ED
330
E2
100
AcDbXrecord
280
1
1000
auto
  0
XRECORD
  5
EE
330
E2
100
AcDbXrecord
280
1
1000
auto
  0
XRECORD
  5
EF
330
E2
100
AcDbXrecord
280
1
1000
auto
  0
XRECORD
  5
F0
330
E2
100
AcDbXrecord
280
1
1000
auto
  0
XRECORD
  5
F1
330
E2
100
AcDbXrecord
280
1
290
0
  0
XRECORD
  5
F2
330
E2
100
AcDbXrecord
280
1
290
0
  0
XRECORD
  5
F3
330
E2
100
AcDbXrecord
280
1
290
0
  0
XRECORD
  5
F4
330
E2
100
AcDbXrecord
280
1
290
0
  0
XRECORD
  5
F5
330
E2
100
AcDbXrecord
280
1
 90
0
  0
XRECORD
  5
F6
330
E2
100
AcDbXrecord
280
1
 90
0
  0
XRECORD
  5
F7
330
E2
100
AcDbXrecord
280
1
 90
0
  0
XRECORD
  5
F8
330
E2
100
AcDbXrecord
280
1
 90
0
  0
XRECORD
  5
F9
330
E2
100
AcDbXrecord
280
1
1000
auto
  0
XRECORD
  5
FA
330
E2
100
AcDbXrecord
280
1
1000
auto
  0
XRECORD
  5
FB
330
E2
100
AcDbXrecord
280
1
1000
auto
  0
XRECORD
  5
FC
330
E2
100
AcDbXrecord
280
1
1000
auto
  0
XRECORD
  5
FD
330
E2
100
AcDbXrecord
280
1
1000
auto
  0
XRECORD
  5
FE
330
E2
100
AcDbXrecord
280
1
1000
auto
  0
XRECORD
  5
FF
330
E2
100
AcDbXrecord
280
1
1000
auto
  0
XRECORD
  5
100
330
E2
100
AcDbXrecord
280
1
1000
auto
  0
XRECORD
  5
101
330
E2
100
AcDbXrecord
280
1
 90
1
  0
XRECORD
  5
102
330
E2
100
AcDbXrecord
280
1
 40
10.0
  0
XRECORD
  5
103
330
E2
100
AcDbXrecord
280
1
 40
10.0
  0
XRECORD
  5
104
330
E2
100
AcDbXrecord
280
1
 40
10.0
  0
XRECORD
  5
105
330
E2
100
AcDbXrecord
280
1
 40
10.0
  0
XRECORD
  5
106
330
E2
100
AcDbXrecord
280
1
290
0
  0
XRECORD
  5
107
330
E2
100
AcDbXrecord
280
1
 90
1
  0
XRECORD
  5
108
330
E2
100
AcDbXrecord
280
1
 40
0.0
  0
XRECORD
  5
109
330
E2
100
AcDbXrecord
280
1
 40
0.0
  0
XRECORD
  5
10A
330
E2
100
AcDbXrecord
280
1
1000
Portrait
  0
XRECORD
  5
10B
330
E2
100
AcDbXrecord
280
1
 40
297.0
  0
XRECORD
  5
10C
330
E2
100
AcDbXrecord
280
1
 40
210.0
  0
XRECORD
  5
10D
330
E2
100
AcDbXrecord
280
1
1000
1:1
  0
XRECORD
  5
10E
330
E2
100
AcDbXrecord
280
1
290
1
  0
XRECORD
  5
10F
330
E2
100
AcDbXrecord
280
1
 90
4
  0
ENDSEC
  0
EOF
