999
dxflib 3.1.5.0
  0
SECTION
  2
HEADER
  9
$ACADVER
  1
AC1015
  9
$HANDSEED
  5
FFFF
  9
$DIMADEC
 70
0
  9
$DIMASZ
 40
0.18
  9
$DIMAUNIT
 70
0
  9
$DIMAZIN
 70
0
  9
$DIMDEC
 70
4
  9
$DIMEXE
 40
0.18
  9
$DIMEXO
 40
0.0625
  9
$DIMGAP
 40
0.09
  9
$DIMLUNIT
 70
2
  9
$DIMTSZ
 40
0.0
  9
$DIMTXT
 40
0.18
  9
$DIMZIN
 70
0
  9
$INSUNITS
 70
0
  9
$LTSCALE
 40
1.0
  0
SECTION
  2
TABLES
  0
TABLE
  2
VPORT
  5
8
100
AcDbSymbolTable
 70
1
  0
VPORT
  5
30
100
AcDbSymbolTableRecord
100
AcDbViewportTableRecord
  2
*Active
 70
0
 10
0.0
 20
0.0
 11
1.0
 21
1.0
 12
286.3055555555554861
 22
148.5
 13
0.0
 23
0.0
 14
10.0
 24
10.0
 15
10.0
 25
10.0
 16
0.0
 26
0.0
 36
1.0
 17
0.0
 27
0.0
 37
0.0
 40
297.0
 41
1.92798353909465
 42
50.0
 43
0.0
 44
0.0
 50
0.0
 51
0.0
 71
0
 72
100
 73
1
 74
3
 75
1
 76
1
 77
0
 78
0
281
0
 65
1
110
0.0
120
0.0
130
0.0
111
1.0
121
0.0
131
0.0
112
0.0
122
1.0
132
0.0
 79
0
146
0.0
  0
ENDTAB
  0
TABLE
  2
LTYPE
  5
5
100
AcDbSymbolTable
 70
21
  0
LTYPE
  5
31
100
AcDbSymbolTableRecord
100
AcDbLinetypeTableRecord
  2
CENTER2
 70
0
  3
Center (.5x) ___ _ ___ _ ___ _ ___ _ ___ _ ___
 72
65
 73
4
 40
28.5749999999999993
 49
19.0500000000000007
 74
0
 49
-3.1749999999999998
 74
0
 49
3.1749999999999998
 74
0
 49
-3.1749999999999998
 74
0
  0
LTYPE
  5
32
100
AcDbSymbolTableRecord
100
AcDbLinetypeTableRecord
  2
DIVIDEX2
 70
0
  3
Divide (2x) ________  .  .  ________  .  .  _
 72
65
 73
6
 40
63.5
 49
25.3999999999999986
 74
0
 49
-12.6999999999999993
 74
0
 49
0.0
 74
0
 49
-12.6999999999999993
 74
0
 49
0.0
 74
0
 49
-12.6999999999999993
 74
0
  0
LTYPE
  5
33
100
AcDbSymbolTableRecord
100
AcDbLinetypeTableRecord
  2
DOT2
 70
0
  3
Dot (.5x) .....................................
 72
65
 73
2
 40
3.1749999999999998
 49
0.0
 74
0
 49
-3.1749999999999998
 74
0
  0
LTYPE
  5
34
100
AcDbSymbolTableRecord
100
AcDbLinetypeTableRecord
  2
DASHDOT2
 70
0
  3
Dash dot (.5x) _._._._._._._._._._._._._._._.
 72
65
 73
4
 40
12.6999999999999993
 49
6.3499999999999996
 74
0
 49
-3.1749999999999998
 74
0
 49
0.0
 74
0
 49
-3.1749999999999998
 74
0
  0
LTYPE
  5
35
100
AcDbSymbolTableRecord
100
AcDbLinetypeTableRecord
  2
DIVIDE
 70
0
  3
Divide ____ . . ____ . . ____ . . ____ . . ____
 72
65
 73
6
 40
31.75
 49
12.6999999999999993
 74
0
 49
-6.3499999999999996
 74
0
 49
0.0
 74
0
 49
-6.3499999999999996
 74
0
 49
0.0
 74
0
 49
-6.3499999999999996
 74
0
  0
LTYPE
  5
36
100
AcDbSymbolTableRecord
100
AcDbLinetypeTableRecord
  2
DASHDOT
 70
0
  3
Dash dot __ . __ . __ . __ . __ . __ . __ . __
 72
65
 73
4
 40
25.3999999999999986
 49
12.6999999999999993
 74
0
 49
-6.3499999999999996
 74
0
 49
0.0
 74
0
 49
-6.3499999999999996
 74
0
  0
LTYPE
  5
37
100
AcDbSymbolTableRecord
100
AcDbLinetypeTableRecord
  2
BORDER
 70
0
  3
Border __ __ . __ __ . __ __ . __ __ . __ __ .
 72
65
 73
6
 40
44.4500000000000028
 49
12.6999999999999993
 74
0
 49
-6.3499999999999996
 74
0
 49
12.6999999999999993
 74
0
 49
-6.3499999999999996
 74
0
 49
0.0
 74
0
 49
-6.3499999999999996
 74
0
  0
LTYPE
  5
38
100
AcDbSymbolTableRecord
100
AcDbLinetypeTableRecord
  2
DASHDOTX2
 70
0
  3
Dash dot (2x) ____  .  ____  .  ____  .  ___
 72
65
 73
4
 40
50.7999999999999972
 49
25.3999999999999986
 74
0
 49
-12.6999999999999993
 74
0
 49
0.0
 74
0
 49
-12.6999999999999993
 74
0
  0
LTYPE
  5
39
100
AcDbSymbolTableRecord
100
AcDbLinetypeTableRecord
  2
CENTERX2
 70
0
  3
Center (2x) ________  __  ________  __  _____
 72
65
 73
4
 40
101.5999999999999943
 49
63.5
 74
0
 49
-12.6999999999999993
 74
0
 49
12.6999999999999993
 74
0
 49
-12.6999999999999993
 74
0
  0
LTYPE
  5
3A
100
AcDbSymbolTableRecord
100
AcDbLinetypeTableRecord
  2
BORDER2
 70
0
  3
Border (.5x) __.__.__.__.__.__.__.__.__.__.__.
 72
65
 73
6
 40
22.2250000000000014
 49
6.3499999999999996
 74
0
 49
-3.1749999999999998
 74
0
 49
6.3499999999999996
 74
0
 49
-3.1749999999999998
 74
0
 49
0.0
 74
0
 49
-3.1749999999999998
 74
0
  0
LTYPE
  5
3B
100
AcDbSymbolTableRecord
100
AcDbLinetypeTableRecord
  2
BORDERX2
 70
0
  3
Border (2x) ____  ____  .  ____  ____  .  ___
 72
65
 73
6
 40
88.9000000000000057
 49
25.3999999999999986
 74
0
 49
-12.6999999999999993
 74
0
 49
25.3999999999999986
 74
0
 49
-12.6999999999999993
 74
0
 49
0.0
 74
0
 49
-12.6999999999999993
 74
0
  0
LTYPE
  5
16
100
AcDbSymbolTableRecord
100
AcDbLinetypeTableRecord
  2
CONTINUOUS
 70
0
  3
Solid line
 72
65
 73
0
 40
0.0
  0
LTYPE
  5
14
100
AcDbSymbolTableRecord
100
AcDbLinetypeTableRecord
  2
BYBLOCK
 70
0
  3

 72
65
 73
0
 40
0.0
  0
LTYPE
  5
15
100
AcDbSymbolTableRecord
100
AcDbLinetypeTableRecord
  2
BYLAYER
 70
0
  3

 72
65
 73
0
 40
0.0
  0
LTYPE
  5
3C
100
AcDbSymbolTableRecord
100
AcDbLinetypeTableRecord
  2
DASHED2
 70
0
  3
Dashed (.5x) _ _ _ _ _ _ _ _ _ _ _ _ _ _ _ _ _
 72
65
 73
2
 40
9.5250000000000004
 49
6.3499999999999996
 74
0
 49
-3.1749999999999998
 74
0
  0
LTYPE
  5
3D
100
AcDbSymbolTableRecord
100
AcDbLinetypeTableRecord
  2
CENTER
 70
0
  3
Center ____ _ ____ _ ____ _ ____ _ ____ _ ____
 72
65
 73
4
 40
50.7999999999999972
 49
31.75
 74
0
 49
-6.3499999999999996
 74
0
 49
6.3499999999999996
 74
0
 49
-6.3499999999999996
 74
0
  0
LTYPE
  5
3E
100
AcDbSymbolTableRecord
100
AcDbLinetypeTableRecord
  2
DIVIDE2
 70
0
  3
Divide (.5x) __..__..__..__..__..__..__..__.._
 72
65
 73
6
 40
15.875
 49
6.3499999999999996
 74
0
 49
-3.1749999999999998
 74
0
 49
0.0
 74
0
 49
-3.1749999999999998
 74
0
 49
0.0
 74
0
 49
-3.1749999999999998
 74
0
  0
LTYPE
  5
3F
100
AcDbSymbolTableRecord
100
AcDbLinetypeTableRecord
  2
DASHED
 70
0
  3
Dashed __ __ __ __ __ __ __ __ __ __ __ __ __ _
 72
65
 73
2
 40
19.0500000000000007
 49
12.6999999999999993
 74
0
 49
-6.3499999999999996
 74
0
  0
LTYPE
  5
40
100
AcDbSymbolTableRecord
100
AcDbLinetypeTableRecord
  2
DOTX2
 70
0
  3
Dot (2x) .  .  .  .  .  .  .  .  .  .  .  .  .
 72
65
 73
2
 40
12.6999999999999993
 49
0.0
 74
0
 49
-12.6999999999999993
 74
0
  0
LTYPE
  5
41
100
AcDbSymbolTableRecord
100
AcDbLinetypeTableRecord
  2
DASHEDX2
 70
0
  3
Dashed (2x) ____  ____  ____  ____  ____  ___
 72
65
 73
2
 40
38.1000000000000014
 49
25.3999999999999986
 74
0
 49
-12.6999999999999993
 74
0
  0
LTYPE
  5
42
100
AcDbSymbolTableRecord
100
AcDbLinetypeTableRecord
  2
DOT
 70
0
  3
Dot . . . . . . . . . . . . . . . . . . . . . .
 72
65
 73
2
 40
6.3499999999999996
 49
0.0
 74
0
 49
-6.3499999999999996
 74
0
  0
ENDTAB
  0
TABLE
  2
LAYER
  5
2
100
AcDbSymbolTable
 70
2
  0
LAYER
  5
43
100
AcDbSymbolTableRecord
100
AcDbLayerTableRecord
  2
Layer0
 70
0
 62
7
  6
BYLAYER
390
F
  0
LAYER
  5
10
100
AcDbSymbolTableRecord
100
AcDbLayerTableRecord
  2
0
 70
0
 62
7
420
16777215
  6
CONTINUOUS
370
25
390
F
  0
ENDTAB
  0
TABLE
  2
STYLE
  5
3
100
AcDbSymbolTable
 70
0
  0
ENDTAB
  0
TABLE
  2
VIEW
  5
6
100
AcDbSymbolTable
 70
0
  0
ENDTAB
  0
TABLE
  2
UCS
  5
7
100
AcDbSymbolTable
 70
0
  0
ENDTAB
  0
TABLE
  2
APPID
  5
9
100
AcDbSymbolTable
 70
1
  0
APPID
  5
44
100
AcDbSymbolTableRecord
100
AcDbRegAppTableRecord
  2
QCAD
 70
0
  0
ENDTAB
  0
TABLE
  2
DIMSTYLE
  5
A
100
AcDbSymbolTable
 70
1
100
AcDbDimStyleTable
 71
0
  0
DIMSTYLE
105
27
100
AcDbSymbolTableRecord
100
AcDbDimStyleTableRecord
  2
Standard
 41
0.18
 42
0.0625
 43
3.75
 44
0.18
 70
0
 73
0
 74
0
 77
1
 78
8
140
0.18
141
2.5
143
0.03937007874016
147
0.09
171
3
172
1
271
2
272
2
274
3
278
44
283
0
284
8
340
11
  0
ENDTAB
  0
TABLE
  2
BLOCK_RECORD
  5
1
100
AcDbSymbolTable
 70
1
  0
BLOCK_RECORD
  5
1F
100
AcDbSymbolTableRecord
100
AcDbBlockTableRecord
  2
*Model_Space
340
22
  0
BLOCK_RECORD
  5
1B
100
AcDbSymbolTableRecord
100
AcDbBlockTableRecord
  2
*Paper_Space
340
1E
  0
BLOCK_RECORD
  5
23
100
AcDbSymbolTableRecord
100
AcDbBlockTableRecord
  2
*Paper_Space0
340
26
  0
BLOCK_RECORD
  5
45
100
AcDbSymbolTableRecord
100
AcDbBlockTableRecord
  2
*Model_Space
340
0
  0
ENDTAB
  0
ENDSEC
  0
SECTION
  2
BLOCKS
  0
BLOCK
  5
20
100
AcDbEntity
  8
0
100
AcDbBlockBegin
  2
*Model_Space
 70
0
 10
0.0
 20
0.0
 30
0.0
  3
*Model_Space
  1

  0
ENDSEC
  0
SECTION
  2
ENTITIES
  0
LINE
  5
46
100
AcDbEntity
100
AcDbLine
  8
0
 62
256
370
-1
  6
BYLAYER
 10
1.2882226078284802
 20
14.3715323699138011
 30
0.0
 11
1.21190489114265
 21
14.2184627109991997
 31
0.0
  0
LINE
  5
47
100
AcDbEntity
100
AcDbLine
  8
0
 62
256
370
-1
  6
BYLAYER
 10
1.3672001348570006
 20
14.5232467877679703
 30
0.0
 11
1.2882226078284802
 21
14.3715323699138011
 31
0.0
  0
LINE
  5
48
100
AcDbEntity
100
AcDbLine
  8
0
 62
256
370
-1
  6
BYLAYER
 10
1.4488134149084093
 20
14.6735597508803401
 30
0.0
 11
1.3672001348570006
 21
14.5232467877679703
 31
0.0
  0
LINE
  5
49
100
AcDbEntity
100
AcDbLine
  8
0
 62
256
370
-1
  6
BYLAYER
 10
1.5330375877869908
 20
14.8224254724662394
 30
0.0
 11
1.4488134149084093
 21
14.6735597508803401
 31
0.0
  0
LINE
  5
4A
100
AcDbEntity
100
AcDbLine
  8
0
 62
256
370
-1
  6
BYLAYER
 10
1.6198469979937897
 20
14.9697986065847708
 30
0.0
 11
1.5330375877869908
 21
14.8224254724662394
 31
0.0
  0
LINE
  5
4B
100
AcDbEntity
100
AcDbLine
  8
0
 62
256
370
-1
  6
BYLAYER
 10
1.7092152025415199
 20
15.1156342619516497
 30
0.0
 11
1.6198469979937897
 21
14.9697986065847708
 31
0.0
  0
LINE
  5
4C
100
AcDbEntity
100
AcDbLine
  8
0
 62
256
370
-1
  6
BYLAYER
 10
1.8011149790093306
 20
15.2598880156134999
 30
0.0
 11
1.7092152025415199
 21
15.1156342619516497
 31
0.0
  0
LINE
  5
4D
100
AcDbEntity
100
AcDbLine
  8
0
 62
256
370
-1
  6
BYLAYER
 10
1.8955183338350796
 20
15.4025159264795501
 30
0.0
 11
1.8011149790093306
 21
15.2598880156134999
 31
0.0
  0
LINE
  5
4E
100
AcDbEntity
100
AcDbLine
  8
0
 62
256
370
-1
  6
BYLAYER
 10
1.9923965108423705
 20
15.5434745487064898
 30
0.0
 11
1.8955183338350796
 21
15.4025159264795501
 31
0.0
  0
LINE
  5
4F
100
AcDbEntity
100
AcDbLine
  8
0
 62
256
370
-1
  6
BYLAYER
 10
2.0917199999999996
 20
15.6827209449324805
 30
0.0
 11
1.9923965108423705
 21
15.5434745487064898
 31
0.0
  0
LINE
  5
50
100
AcDbEntity
100
AcDbLine
  8
0
 62
256
370
-1
  6
BYLAYER
 10
4.00798215838552
 20
15.1995371668910497
 30
0.0
 11
2.0917199999999996
 21
15.6827209449324805
 31
0.0
  0
LINE
  5
51
100
AcDbEntity
100
AcDbLine
  8
0
 62
256
370
-1
  6
BYLAYER
 10
6.8503063079388502
 20
12.6778733942263706
 30
0.0
 11
4.00798215838552
 21
15.1995371668910497
 31
0.0
  0
LINE
  5
52
100
AcDbEntity
100
AcDbLine
  8
0
 62
256
370
-1
  6
BYLAYER
 10
6.8503063079388502
 20
12.6778733942263706
 30
0.0
 11
6.8988782778694304
 21
12.7327740191734406
 31
0.0
  0
LINE
  5
53
100
AcDbEntity
100
AcDbLine
  8
0
 62
256
370
-1
  6
BYLAYER
 10
6.8988782778694304
 20
12.7327740191734406
 30
0.0
 11
6.9484009980739696
 21
12.7868185847287297
 31
0.0
  0
LINE
  5
54
100
AcDbEntity
100
AcDbLine
  8
0
 62
256
370
-1
  6
BYLAYER
 10
6.9484009980739696
 20
12.7868185847287297
 30
0.0
 11
6.9988593834521495
 21
12.8399906283940304
 31
0.0
  0
LINE
  5
55
100
AcDbEntity
100
AcDbLine
  8
0
 62
256
370
-1
  6
BYLAYER
 10
6.9988593834521495
 20
12.8399906283940304
 30
0.0
 11
7.0502380638909905
 21
12.8922739534497399
 31
0.0
  0
LINE
  5
56
100
AcDbEntity
100
AcDbLine
  8
0
 62
256
370
-1
  6
BYLAYER
 10
7.0502380638909905
 20
12.8922739534497399
 30
0.0
 11
7.1025213889467
 21
12.9436526338885702
 31
0.0
  0
LINE
  5
57
100
AcDbEntity
100
AcDbLine
  8
0
 62
256
370
-1
  6
BYLAYER
 10
7.1025213889467
 20
12.9436526338885702
 30
0.0
 11
7.1556934326119901
 21
12.9941110192667502
 31
0.0
  0
LINE
  5
58
100
AcDbEntity
100
AcDbLine
  8
0
 62
256
370
-1
  6
BYLAYER
 10
9.8002755286541241
 20
5.7281814264970299
 30
0.0
 11
9.7271093551491621
 21
5.7326564613749804
 31
0.0
  0
LINE
  5
59
100
AcDbEntity
100
AcDbLine
  8
0
 62
256
370
-1
  6
BYLAYER
 10
9.7271093551491621
 20
5.7326564613749804
 30
0.0
 11
9.4951249049166861
 21
1.9397442273718806
 31
0.0
  0
LINE
  5
5A
100
AcDbEntity
100
AcDbLine
  8
0
 62
256
370
-1
  6
BYLAYER
 10
9.4951249049166861
 20
1.9397442273718806
 30
0.0
 11
8.4870287874802202
 21
0.2430797346338895
 31
0.0
  0
LINE
  5
5B
100
AcDbEntity
100
AcDbLine
  8
0
 62
256
370
-1
  6
BYLAYER
 10
8.3183344037385698
 20
0.2713094929465996
 30
0.0
 11
8.4870287874802202
 21
0.2430797346338895
 31
0.0
  0
LINE
  5
5C
100
AcDbEntity
100
AcDbLine
  8
0
 62
256
370
-1
  6
BYLAYER
 10
8.15015839018435
 20
0.3024790746791304
 30
0.0
 11
8.3183344037385698
 21
0.2713094929465996
 31
0.0
  0
LINE
  5
5D
100
AcDbEntity
100
AcDbLine
  8
0
 62
256
370
-1
  6
BYLAYER
 10
7.9825519748604403
 20
0.3365789852749508
 30
0.0
 11
8.15015839018435
 21
0.3024790746791304
 31
0.0
  0
LINE
  5
5E
100
AcDbEntity
100
AcDbLine
  8
0
 62
256
370
-1
  6
BYLAYER
 10
7.8155662123046099
 20
0.3735988375709294
 30
0.0
 11
7.9825519748604403
 21
0.3365789852749508
 31
0.0
  0
LINE
  5
5F
100
AcDbEntity
100
AcDbLine
  8
0
 62
256
370
-1
  6
BYLAYER
 10
7.6492519679977402
 20
0.4135273549614702
 30
0.0
 11
7.8155662123046099
 21
0.3735988375709294
 31
0.0
  0
LINE
  5
60
100
AcDbEntity
100
AcDbLine
  8
0
 62
256
370
-1
  6
BYLAYER
 10
7.4836599028697801
 20
0.4563523748333704
 30
0.0
 11
7.6492519679977402
 21
0.4135273549614702
 31
0.0
  0
LINE
  5
61
100
AcDbEntity
100
AcDbLine
  8
0
 62
256
370
-1
  6
BYLAYER
 10
7.3188404578678998
 20
0.5020608522707093
 30
0.0
 11
7.4836599028697801
 21
0.4563523748333704
 31
0.0
  0
LINE
  5
62
100
AcDbEntity
100
AcDbLine
  8
0
 62
256
370
-1
  6
BYLAYER
 10
7.1548438385916704
 20
0.5506388640284907
 30
0.0
 11
7.3188404578678998
 21
0.5020608522707093
 31
0.0
  0
LINE
  5
63
100
AcDbEntity
100
AcDbLine
  8
0
 62
256
370
-1
  6
BYLAYER
 10
6.9917199999999999
 20
0.6020716127737291
 30
0.0
 11
7.1548438385916704
 21
0.5506388640284907
 31
0.0
  0
LINE
  5
64
100
AcDbEntity
100
AcDbLine
  8
0
 62
256
370
-1
  6
BYLAYER
 10
7.1556934326119901
 20
12.9941110192667502
 30
0.0
 11
7.2097379981672898
 21
13.0436337394712893
 31
0.0
  0
LINE
  5
65
100
AcDbEntity
100
AcDbLine
  8
0
 62
256
370
-1
  6
BYLAYER
 10
7.2097379981672898
 20
13.0436337394712893
 30
0.0
 11
7.2646386231143598
 21
13.0922057094018811
 31
0.0
  0
LINE
  5
66
100
AcDbEntity
100
AcDbLine
  8
0
 62
256
370
-1
  6
BYLAYER
 10
7.2646386231143598
 20
13.0922057094018811
 30
0.0
 11
4.7466824398945597
 21
15.9382374484001001
 31
0.0
  0
LINE
  5
67
100
AcDbEntity
100
AcDbLine
  8
0
 62
256
370
-1
  6
BYLAYER
 10
4.7466824398945597
 20
15.9382374484001001
 30
0.0
 11
4.2597910724082499
 21
17.85079201734073
 31
0.0
  0
LINE
  5
68
100
AcDbEntity
100
AcDbLine
  8
0
 62
256
370
-1
  6
BYLAYER
 10
4.3990374686342397
 20
17.9501155064983493
 30
0.0
 11
4.2597910724082499
 21
17.85079201734073
 31
0.0
  0
LINE
  5
69
100
AcDbEntity
100
AcDbLine
  8
0
 62
256
370
-1
  6
BYLAYER
 10
4.5399960908611696
 20
18.0469936835056508
 30
0.0
 11
4.3990374686342397
 21
17.9501155064983493
 31
0.0
  0
LINE
  5
6A
100
AcDbEntity
100
AcDbLine
  8
0
 62
256
370
-1
  6
BYLAYER
 10
4.6826240017272198
 20
18.1413970383313909
 30
0.0
 11
4.5399960908611696
 21
18.0469936835056508
 31
0.0
  0
LINE
  5
6B
100
AcDbEntity
100
AcDbLine
  8
0
 62
256
370
-1
  6
BYLAYER
 10
13.2106544585546199
 20
0.6563434315929406
 30
0.0
 11
13.3718839494660404
 21
0.7134377887643399
 31
0.0
  0
LINE
  5
6C
100
AcDbEntity
100
AcDbLine
  8
0
 62
256
370
-1
  6
BYLAYER
 10
13.0484530897489694
 20
0.6020716127737291
 30
0.0
 11
13.2106544585546199
 21
0.6563434315929406
 31
0.0
  0
LINE
  5
6D
100
AcDbEntity
100
AcDbLine
  8
0
 62
256
370
-1
  6
BYLAYER
 10
12.8853292511573105
 20
0.5506388640284907
 30
0.0
 11
13.0484530897489694
 21
0.6020716127737291
 31
0.0
  0
LINE
  5
6E
100
AcDbEntity
100
AcDbLine
  8
0
 62
256
370
-1
  6
BYLAYER
 10
12.7213326318810793
 20
0.5020608522707093
 30
0.0
 11
12.8853292511573105
 21
0.5506388640284907
 31
0.0
  0
LINE
  5
6F
100
AcDbEntity
100
AcDbLine
  8
0
 62
256
370
-1
  6
BYLAYER
 10
12.5565131868791902
 20
0.4563523748333704
 30
0.0
 11
12.7213326318810793
 21
0.5020608522707093
 31
0.0
  0
LINE
  5
70
100
AcDbEntity
100
AcDbLine
  8
0
 62
256
370
-1
  6
BYLAYER
 10
12.3909211217512301
 20
0.4135273549614702
 30
0.0
 11
12.5565131868791902
 21
0.4563523748333704
 31
0.0
  0
LINE
  5
71
100
AcDbEntity
100
AcDbLine
  8
0
 62
256
370
-1
  6
BYLAYER
 10
12.2246068774443692
 20
0.3735988375709294
 30
0.0
 11
12.3909211217512301
 21
0.4135273549614702
 31
0.0
  0
LINE
  5
72
100
AcDbEntity
100
AcDbLine
  8
0
 62
256
370
-1
  6
BYLAYER
 10
12.0576211148885299
 20
0.3365789852749401
 30
0.0
 11
12.2246068774443692
 21
0.3735988375709294
 31
0.0
  0
LINE
  5
73
100
AcDbEntity
100
AcDbLine
  8
0
 62
256
370
-1
  6
BYLAYER
 10
11.890014699564631
 20
0.3024790746791304
 30
0.0
 11
12.0576211148885299
 21
0.3365789852749401
 31
0.0
  0
LINE
  5
74
100
AcDbEntity
100
AcDbLine
  8
0
 62
256
370
-1
  6
BYLAYER
 10
11.7218386860104093
 20
0.2713094929465996
 30
0.0
 11
11.890014699564631
 21
0.3024790746791304
 31
0.0
  0
LINE
  5
75
100
AcDbEntity
100
AcDbLine
  8
0
 62
256
370
-1
  6
BYLAYER
 10
11.5531443022687501
 20
0.2430797346338895
 30
0.0
 11
11.7218386860104093
 21
0.2713094929465996
 31
0.0
  0
LINE
  5
76
100
AcDbEntity
100
AcDbLine
  8
0
 62
256
370
-1
  6
BYLAYER
 10
10.5398048615556075
 20
1.9397442273718806
 30
0.0
 11
11.5531443022687501
 21
0.2430797346338895
 31
0.0
  0
LINE
  5
77
100
AcDbEntity
100
AcDbLine
  8
0
 62
256
370
-1
  6
BYLAYER
 10
10.3130637345998171
 20
5.7326564613749804
 30
0.0
 11
10.5398048615556075
 21
1.9397442273718806
 31
0.0
  0
LINE
  5
78
100
AcDbEntity
100
AcDbLine
  8
0
 62
256
370
-1
  6
BYLAYER
 10
10.3130637345998171
 20
5.7326564613749804
 30
0.0
 11
10.239897561094855
 21
5.7281814264970299
 31
0.0
  0
LINE
  5
79
100
AcDbEntity
100
AcDbLine
  8
0
 62
256
370
-1
  6
BYLAYER
 10
10.239897561094855
 20
5.7281814264970299
 30
0.0
 11
10.1666644310249925
 21
5.7249839989860396
 31
0.0
  0
LINE
  5
7A
100
AcDbEntity
100
AcDbLine
  8
0
 62
256
370
-1
  6
BYLAYER
 10
10.1666644310249925
 20
5.7249839989860396
 30
0.0
 11
10.0933866519110804
 21
5.7230651528093999
 31
0.0
  0
LINE
  5
7B
100
AcDbEntity
100
AcDbLine
  8
0
 62
256
370
-1
  6
BYLAYER
 10
10.0933866519110804
 20
5.7230651528093999
 30
0.0
 11
10.0200865448744896
 21
5.7224254724662398
 31
0.0
  0
LINE
  5
7C
100
AcDbEntity
100
AcDbLine
  8
0
 62
256
370
-1
  6
BYLAYER
 10
10.0200865448744896
 20
5.7224254724662398
 30
0.0
 11
9.946786437837897
 21
5.7230651528093999
 31
0.0
  0
LINE
  5
7D
100
AcDbEntity
100
AcDbLine
  8
0
 62
256
370
-1
  6
BYLAYER
 10
9.946786437837897
 20
5.7230651528093999
 30
0.0
 11
9.8735086587239849
 21
5.7249839989860396
 31
0.0
  0
LINE
  5
7E
100
AcDbEntity
100
AcDbLine
  8
0
 62
256
370
-1
  6
BYLAYER
 10
9.8735086587239849
 20
5.7249839989860396
 30
0.0
 11
9.8002755286541241
 21
5.7281814264970299
 31
0.0
  0
LINE
  5
7F
100
AcDbEntity
100
AcDbLine
  8
0
 62
256
370
-1
  6
BYLAYER
 10
19.1691747245470694
 20
6.4104195669222896
 30
0.0
 11
19.2290742285763905
 21
6.5706280678746793
 31
0.0
  0
LINE
  5
80
100
AcDbEntity
100
AcDbLine
  8
0
 62
256
370
-1
  6
BYLAYER
 10
19.1064883196290012
 20
6.2512808569903004
 30
0.0
 11
19.1691747245470694
 21
6.4104195669222896
 31
0.0
  0
LINE
  5
81
100
AcDbEntity
100
AcDbLine
  8
0
 62
256
370
-1
  6
BYLAYER
 10
19.0410341087084092
 20
6.0932604132713601
 30
0.0
 11
19.1064883196290012
 21
6.2512808569903004
 31
0.0
  0
LINE
  5
82
100
AcDbEntity
100
AcDbLine
  8
0
 62
256
370
-1
  6
BYLAYER
 10
18.972832029771979
 20
5.9364063703234002
 30
0.0
 11
19.0410341087084092
 21
6.0932604132713601
 31
0.0
  0
LINE
  5
83
100
AcDbEntity
100
AcDbLine
  8
0
 62
256
370
-1
  6
BYLAYER
 10
18.9019028578336616
 20
5.78076650740738
 30
0.0
 11
18.972832029771979
 21
5.9364063703234002
 31
0.0
  0
LINE
  5
84
100
AcDbEntity
100
AcDbLine
  8
0
 62
256
370
-1
  6
BYLAYER
 10
18.8282681986063203
 20
5.6263882339332802
 30
0.0
 11
18.9019028578336616
 21
5.78076650740738
 31
0.0
  0
LINE
  5
85
100
AcDbEntity
100
AcDbLine
  8
0
 62
256
370
-1
  6
BYLAYER
 10
18.7519504819204883
 20
5.4733185750186797
 30
0.0
 11
18.8282681986063203
 21
5.6263882339332802
 31
0.0
  0
LINE
  5
86
100
AcDbEntity
100
AcDbLine
  8
0
 62
256
370
-1
  6
BYLAYER
 10
18.6729729548919678
 20
5.3216041571645096
 30
0.0
 11
18.7519504819204883
 21
5.4733185750186797
 31
0.0
  0
LINE
  5
87
100
AcDbEntity
100
AcDbLine
  8
0
 62
256
370
-1
  6
BYLAYER
 10
18.5913596748405681
 20
5.17129119405213
 30
0.0
 11
18.6729729548919678
 21
5.3216041571645096
 31
0.0
  0
LINE
  5
88
100
AcDbEntity
100
AcDbLine
  8
0
 62
256
370
-1
  6
BYLAYER
 10
18.5071355019619901
 20
5.0224254724662396
 30
0.0
 11
18.5913596748405681
 21
5.17129119405213
 31
0.0
  0
LINE
  5
89
100
AcDbEntity
100
AcDbLine
  8
0
 62
256
370
-1
  6
BYLAYER
 10
18.4203260917551894
 20
4.87505233834771
 30
0.0
 11
18.5071355019619901
 21
5.0224254724662396
 31
0.0
  0
LINE
  5
8A
100
AcDbEntity
100
AcDbLine
  8
0
 62
256
370
-1
  6
BYLAYER
 10
18.330957887207461
 20
4.7292166829808302
 30
0.0
 11
18.4203260917551894
 21
4.87505233834771
 31
0.0
  0
LINE
  5
8B
100
AcDbEntity
100
AcDbLine
  8
0
 62
256
370
-1
  6
BYLAYER
 10
18.2390581107396486
 20
4.5849629293189702
 30
0.0
 11
18.330957887207461
 21
4.7292166829808302
 31
0.0
  0
LINE
  5
8C
100
AcDbEntity
100
AcDbLine
  8
0
 62
256
370
-1
  6
BYLAYER
 10
18.1446547559138978
 20
4.44233501845292
 30
0.0
 11
18.2390581107396486
 21
4.5849629293189702
 31
0.0
  0
LINE
  5
8D
100
AcDbEntity
100
AcDbLine
  8
0
 62
256
370
-1
  6
BYLAYER
 10
18.0477765789066105
 20
4.3013763962259901
 30
0.0
 11
18.1446547559138978
 21
4.44233501845292
 31
0.0
  0
LINE
  5
8E
100
AcDbEntity
100
AcDbLine
  8
0
 62
256
370
-1
  6
BYLAYER
 10
17.9484530897489698
 20
4.1621300000000003
 30
0.0
 11
18.0477765789066105
 21
4.3013763962259901
 31
0.0
  0
LINE
  5
8F
100
AcDbEntity
100
AcDbLine
  8
0
 62
256
370
-1
  6
BYLAYER
 10
16.0321909313634592
 20
4.6453137780414302
 30
0.0
 11
17.9484530897489698
 21
4.1621300000000003
 31
0.0
  0
LINE
  5
90
100
AcDbEntity
100
AcDbLine
  8
0
 62
256
370
-1
  6
BYLAYER
 10
13.1898667818101298
 20
7.1669775507061102
 30
0.0
 11
16.0321909313634592
 21
4.6453137780414302
 31
0.0
  0
LINE
  5
91
100
AcDbEntity
100
AcDbLine
  8
0
 62
256
370
-1
  6
BYLAYER
 10
13.1898667818101298
 20
7.1669775507061102
 30
0.0
 11
13.1412948118795505
 21
7.1120769257590304
 31
0.0
  0
LINE
  5
92
100
AcDbEntity
100
AcDbLine
  8
0
 62
256
370
-1
  6
BYLAYER
 10
13.1412948118795505
 20
7.1120769257590304
 30
0.0
 11
13.0917720916750007
 21
7.0580323602037396
 31
0.0
  0
LINE
  5
93
100
AcDbEntity
100
AcDbLine
  8
0
 62
256
370
-1
  6
BYLAYER
 10
13.0917720916750007
 20
7.0580323602037396
 30
0.0
 11
13.041313706296819
 21
7.0048603165384495
 31
0.0
  0
LINE
  5
94
100
AcDbEntity
100
AcDbLine
  8
0
 62
256
370
-1
  6
BYLAYER
 10
13.041313706296819
 20
7.0048603165384495
 30
0.0
 11
12.9899350258579904
 21
6.95257699148274
 31
0.0
  0
LINE
  5
95
100
AcDbEntity
100
AcDbLine
  8
0
 62
256
370
-1
  6
BYLAYER
 10
12.9899350258579904
 20
6.95257699148274
 30
0.0
 11
12.9376517008022809
 21
6.9011983110439097
 31
0.0
  0
LINE
  5
96
100
AcDbEntity
100
AcDbLine
  8
0
 62
256
370
-1
  6
BYLAYER
 10
12.9376517008022809
 20
6.9011983110439097
 30
0.0
 11
12.8844796571369802
 21
6.85073992566572
 31
0.0
  0
LINE
  5
97
100
AcDbEntity
100
AcDbLine
  8
0
 62
256
370
-1
  6
BYLAYER
 10
12.8844796571369802
 20
6.85073992566572
 30
0.0
 11
12.8304350915816894
 21
6.8012172054611799
 31
0.0
  0
LINE
  5
98
100
AcDbEntity
100
AcDbLine
  8
0
 62
256
370
-1
  6
BYLAYER
 10
12.8304350915816894
 20
6.8012172054611799
 30
0.0
 11
12.7755344666346193
 21
6.7526452355306006
 31
0.0
  0
LINE
  5
99
100
AcDbEntity
100
AcDbLine
  8
0
 62
256
370
-1
  6
BYLAYER
 10
12.7755344666346193
 20
6.7526452355306006
 30
0.0
 11
15.2934906498543999
 21
3.9066134965323798
 31
0.0
  0
LINE
  5
9A
100
AcDbEntity
100
AcDbLine
  8
0
 62
256
370
-1
  6
BYLAYER
 10
15.2934906498543999
 20
3.9066134965323798
 30
0.0
 11
15.780382017340731
 21
1.9940589275917606
 31
0.0
  0
LINE
  5
9B
100
AcDbEntity
100
AcDbLine
  8
0
 62
256
370
-1
  6
BYLAYER
 10
15.6411356211147403
 20
1.89473543843412
 30
0.0
 11
15.780382017340731
 21
1.9940589275917606
 31
0.0
  0
LINE
  5
9C
100
AcDbEntity
100
AcDbLine
  8
0
 62
256
370
-1
  6
BYLAYER
 10
15.5001769988878095
 20
1.7978572614268291
 30
0.0
 11
15.6411356211147403
 21
1.89473543843412
 31
0.0
  0
LINE
  5
9D
100
AcDbEntity
100
AcDbLine
  8
0
 62
256
370
-1
  6
BYLAYER
 10
15.3575490880217487
 20
1.7034539066010801
 30
0.0
 11
15.5001769988878095
 21
1.7978572614268291
 31
0.0
  0
LINE
  5
9E
100
AcDbEntity
100
AcDbLine
  8
0
 62
256
370
-1
  6
BYLAYER
 10
15.2132953343599002
 20
1.6115541301332694
 30
0.0
 11
15.3575490880217487
 21
1.7034539066010801
 31
0.0
  0
LINE
  5
9F
100
AcDbEntity
100
AcDbLine
  8
0
 62
256
370
-1
  6
BYLAYER
 10
15.0674596789930213
 20
1.5221859255855392
 30
0.0
 11
15.2132953343599002
 21
1.6115541301332694
 31
0.0
  0
LINE
  5
A0
100
AcDbEntity
100
AcDbLine
  8
0
 62
256
370
-1
  6
BYLAYER
 10
14.9200865448744899
 20
1.4353765153787403
 30
0.0
 11
15.0674596789930213
 21
1.5221859255855392
 31
0.0
  0
LINE
  5
A1
100
AcDbEntity
100
AcDbLine
  8
0
 62
256
370
-1
  6
BYLAYER
 10
14.7712208232885907
 20
1.3511523425001606
 30
0.0
 11
14.9200865448744899
 21
1.4353765153787403
 31
0.0
  0
LINE
  5
A2
100
AcDbEntity
100
AcDbLine
  8
0
 62
256
370
-1
  6
BYLAYER
 10
14.6209078601762208
 20
1.2695390624487608
 30
0.0
 11
14.7712208232885907
 21
1.3511523425001606
 31
0.0
  0
LINE
  5
A3
100
AcDbEntity
100
AcDbLine
  8
0
 62
256
370
-1
  6
BYLAYER
 10
14.4691934423220498
 20
1.1905615354202297
 30
0.0
 11
14.6209078601762208
 21
1.2695390624487608
 31
0.0
  0
LINE
  5
A4
100
AcDbEntity
100
AcDbLine
  8
0
 62
256
370
-1
  6
BYLAYER
 10
14.3161237834074502
 20
1.1142438187343995
 30
0.0
 11
14.4691934423220498
 21
1.1905615354202297
 31
0.0
  0
LINE
  5
A5
100
AcDbEntity
100
AcDbLine
  8
0
 62
256
370
-1
  6
BYLAYER
 10
14.1617455099333398
 20
1.0406091595070706
 30
0.0
 11
14.3161237834074502
 21
1.1142438187343995
 31
0.0
  0
LINE
  5
A6
100
AcDbEntity
100
AcDbLine
  8
0
 62
256
370
-1
  6
BYLAYER
 10
14.0061056470173302
 20
0.9696799875687496
 30
0.0
 11
14.1617455099333398
 21
1.0406091595070706
 31
0.0
  0
LINE
  5
A7
100
AcDbEntity
100
AcDbLine
  8
0
 62
256
370
-1
  6
BYLAYER
 10
13.8492516040693694
 20
0.9014779086323195
 30
0.0
 11
14.0061056470173302
 21
0.9696799875687496
 31
0.0
  0
LINE
  5
A8
100
AcDbEntity
100
AcDbLine
  8
0
 62
256
370
-1
  6
BYLAYER
 10
13.69123116035043
 20
0.8360236977117204
 30
0.0
 11
13.8492516040693694
 21
0.9014779086323195
 31
0.0
  0
LINE
  5
A9
100
AcDbEntity
100
AcDbLine
  8
0
 62
256
370
-1
  6
BYLAYER
 10
13.5320924504184301
 20
0.7733372927936593
 30
0.0
 11
13.69123116035043
 21
0.8360236977117204
 31
0.0
  0
LINE
  5
AA
100
AcDbEntity
100
AcDbLine
  8
0
 62
256
370
-1
  6
BYLAYER
 10
13.3718839494660404
 20
0.7134377887643399
 30
0.0
 11
13.5320924504184301
 21
0.7733372927936593
 31
0.0
  0
LINE
  5
AB
100
AcDbEntity
100
AcDbLine
  8
0
 62
256
370
-1
  6
BYLAYER
 10
18.5071355019619901
 20
14.8224254724662288
 30
0.0
 11
18.4203260917551894
 21
14.9697986065847708
 31
0.0
  0
LINE
  5
AC
100
AcDbEntity
100
AcDbLine
  8
0
 62
256
370
-1
  6
BYLAYER
 10
18.5913596748405681
 20
14.6735597508803401
 30
0.0
 11
18.5071355019619901
 21
14.8224254724662288
 31
0.0
  0
LINE
  5
AD
100
AcDbEntity
100
AcDbLine
  8
0
 62
256
370
-1
  6
BYLAYER
 10
18.6729729548919678
 20
14.5232467877679703
 30
0.0
 11
18.5913596748405681
 21
14.6735597508803401
 31
0.0
  0
LINE
  5
AE
100
AcDbEntity
100
AcDbLine
  8
0
 62
256
370
-1
  6
BYLAYER
 10
18.7519504819204883
 20
14.3715323699137905
 30
0.0
 11
18.6729729548919678
 21
14.5232467877679703
 31
0.0
  0
LINE
  5
AF
100
AcDbEntity
100
AcDbLine
  8
0
 62
256
370
-1
  6
BYLAYER
 10
18.8282681986063203
 20
14.2184627109991997
 30
0.0
 11
18.7519504819204883
 21
14.3715323699137905
 31
0.0
  0
LINE
  5
B0
100
AcDbEntity
100
AcDbLine
  8
0
 62
256
370
-1
  6
BYLAYER
 10
18.9019028578336616
 20
14.0640844375250893
 30
0.0
 11
18.8282681986063203
 21
14.2184627109991997
 31
0.0
  0
LINE
  5
B1
100
AcDbEntity
100
AcDbLine
  8
0
 62
256
370
-1
  6
BYLAYER
 10
18.972832029771979
 20
13.9084445746090797
 30
0.0
 11
18.9019028578336616
 21
14.0640844375250893
 31
0.0
  0
LINE
  5
B2
100
AcDbEntity
100
AcDbLine
  8
0
 62
256
370
-1
  6
BYLAYER
 10
19.0410341087084021
 20
13.7515905316611207
 30
0.0
 11
18.972832029771979
 21
13.9084445746090797
 31
0.0
  0
LINE
  5
B3
100
AcDbEntity
100
AcDbLine
  8
0
 62
256
370
-1
  6
BYLAYER
 10
19.1064883196290012
 20
13.5935700879421795
 30
0.0
 11
19.0410341087084021
 21
13.7515905316611207
 31
0.0
  0
LINE
  5
B4
100
AcDbEntity
100
AcDbLine
  8
0
 62
256
370
-1
  6
BYLAYER
 10
19.1691747245470694
 20
13.4344313780101796
 30
0.0
 11
19.1064883196290012
 21
13.5935700879421795
 31
0.0
  0
LINE
  5
B5
100
AcDbEntity
100
AcDbLine
  8
0
 62
256
370
-1
  6
BYLAYER
 10
19.2290742285763905
 20
13.2742228770577899
 30
0.0
 11
19.1691747245470694
 21
13.4344313780101796
 31
0.0
  0
LINE
  5
B6
100
AcDbEntity
100
AcDbLine
  8
0
 62
256
370
-1
  6
BYLAYER
 10
19.286168585747788
 20
13.1129933861463694
 30
0.0
 11
19.2290742285763905
 21
13.2742228770577899
 31
0.0
  0
LINE
  5
B7
100
AcDbEntity
100
AcDbLine
  8
0
 62
256
370
-1
  6
BYLAYER
 10
19.3404404045669907
 20
12.9507920173407207
 30
0.0
 11
19.286168585747788
 21
13.1129933861463694
 31
0.0
  0
LINE
  5
B8
100
AcDbEntity
100
AcDbLine
  8
0
 62
256
370
-1
  6
BYLAYER
 10
19.3918731533122397
 20
12.78766817874906
 30
0.0
 11
19.3404404045669907
 21
12.9507920173407207
 31
0.0
  0
LINE
  5
B9
100
AcDbEntity
100
AcDbLine
  8
0
 62
256
370
-1
  6
BYLAYER
 10
19.4404511650700194
 20
12.6236715594728306
 30
0.0
 11
19.3918731533122397
 21
12.78766817874906
 31
0.0
  0
LINE
  5
BA
100
AcDbEntity
100
AcDbLine
  8
0
 62
256
370
-1
  6
BYLAYER
 10
19.48615964250736
 20
12.4588521144709397
 30
0.0
 11
19.4404511650700194
 21
12.6236715594728306
 31
0.0
  0
LINE
  5
BB
100
AcDbEntity
100
AcDbLine
  8
0
 62
256
370
-1
  6
BYLAYER
 10
19.5289846623792513
 20
12.2932600493429796
 30
0.0
 11
19.48615964250736
 21
12.4588521144709397
 31
0.0
  0
LINE
  5
BC
100
AcDbEntity
100
AcDbLine
  8
0
 62
256
370
-1
  6
BYLAYER
 10
19.568913179769801
 20
12.1269458050361205
 30
0.0
 11
19.5289846623792513
 21
12.2932600493429796
 31
0.0
  0
LINE
  5
BD
100
AcDbEntity
100
AcDbLine
  8
0
 62
256
370
-1
  6
BYLAYER
 10
19.6059330320657779
 20
11.9599600424802794
 30
0.0
 11
19.568913179769801
 21
12.1269458050361205
 31
0.0
  0
LINE
  5
BE
100
AcDbEntity
100
AcDbLine
  8
0
 62
256
370
-1
  6
BYLAYER
 10
19.6400329426615983
 20
11.7923536271563805
 30
0.0
 11
19.6059330320657779
 21
11.9599600424802794
 31
0.0
  0
LINE
  5
BF
100
AcDbEntity
100
AcDbLine
  8
0
 62
256
370
-1
  6
BYLAYER
 10
19.6712025243941326
 20
11.62417761360215
 30
0.0
 11
19.6400329426615983
 21
11.7923536271563805
 31
0.0
  0
LINE
  5
C0
100
AcDbEntity
100
AcDbLine
  8
0
 62
256
370
-1
  6
BYLAYER
 10
19.6994322827068409
 20
11.4554832298604996
 30
0.0
 11
19.6712025243941326
 21
11.62417761360215
 31
0.0
  0
LINE
  5
C1
100
AcDbEntity
100
AcDbLine
  8
0
 62
256
370
-1
  6
BYLAYER
 10
18.0027677899688392
 20
10.4421437891473605
 30
0.0
 11
19.6994322827068409
 21
11.4554832298604996
 31
0.0
  0
LINE
  5
C2
100
AcDbEntity
100
AcDbLine
  8
0
 62
256
370
-1
  6
BYLAYER
 10
14.2098555559657491
 20
10.2154026621915666
 30
0.0
 11
18.0027677899688392
 21
10.4421437891473605
 31
0.0
  0
LINE
  5
C3
100
AcDbEntity
100
AcDbLine
  8
0
 62
256
370
-1
  6
BYLAYER
 10
14.2098555559657491
 20
10.2154026621915666
 30
0.0
 11
14.2143305908436997
 21
10.1422364886866045
 31
0.0
  0
LINE
  5
C4
100
AcDbEntity
100
AcDbLine
  8
0
 62
256
370
-1
  6
BYLAYER
 10
14.2143305908436997
 20
10.1422364886866045
 30
0.0
 11
14.2175280183546899
 21
10.069003358616742
 31
0.0
  0
LINE
  5
C5
100
AcDbEntity
100
AcDbLine
  8
0
 62
256
370
-1
  6
BYLAYER
 10
14.2175280183546899
 20
10.069003358616742
 30
0.0
 11
14.2194468645313297
 21
9.9957255795028299
 31
0.0
  0
LINE
  5
C6
100
AcDbEntity
100
AcDbLine
  8
0
 62
256
370
-1
  6
BYLAYER
 10
14.2194468645313297
 20
9.9957255795028299
 30
0.0
 11
14.2200865448744906
 21
9.9224254724662408
 31
0.0
  0
LINE
  5
C7
100
AcDbEntity
100
AcDbLine
  8
0
 62
256
370
-1
  6
BYLAYER
 10
14.2200865448744906
 20
9.9224254724662408
 30
0.0
 11
14.2194468645313297
 21
9.8491253654296482
 31
0.0
  0
LINE
  5
C8
100
AcDbEntity
100
AcDbLine
  8
0
 62
256
370
-1
  6
BYLAYER
 10
14.2194468645313297
 20
9.8491253654296482
 30
0.0
 11
14.2175280183546899
 21
9.7758475863157344
 31
0.0
  0
LINE
  5
C9
100
AcDbEntity
100
AcDbLine
  8
0
 62
256
370
-1
  6
BYLAYER
 10
14.2175280183546899
 20
9.7758475863157344
 30
0.0
 11
14.2143305908436997
 21
9.7026144562458736
 31
0.0
  0
LINE
  5
CA
100
AcDbEntity
100
AcDbLine
  8
0
 62
256
370
-1
  6
BYLAYER
 10
14.2143305908436997
 20
9.7026144562458736
 30
0.0
 11
14.2098555559657491
 21
9.6294482827409134
 31
0.0
  0
LINE
  5
CB
100
AcDbEntity
100
AcDbLine
  8
0
 62
256
370
-1
  6
BYLAYER
 10
14.2098555559657491
 20
9.6294482827409134
 30
0.0
 11
18.0027677899688392
 21
9.3974638325084392
 31
0.0
  0
LINE
  5
CC
100
AcDbEntity
100
AcDbLine
  8
0
 62
256
370
-1
  6
BYLAYER
 10
18.0027677899688392
 20
9.3974638325084392
 30
0.0
 11
19.6994322827068409
 21
8.3893677150719697
 31
0.0
  0
LINE
  5
CD
100
AcDbEntity
100
AcDbLine
  8
0
 62
256
370
-1
  6
BYLAYER
 10
19.6712025243941326
 20
8.2206733313303193
 30
0.0
 11
19.6994322827068409
 21
8.3893677150719697
 31
0.0
  0
LINE
  5
CE
100
AcDbEntity
100
AcDbLine
  8
0
 62
256
370
-1
  6
BYLAYER
 10
19.6400329426615983
 20
8.0524973177760995
 30
0.0
 11
19.6712025243941326
 21
8.2206733313303193
 31
0.0
  0
LINE
  5
CF
100
AcDbEntity
100
AcDbLine
  8
0
 62
256
370
-1
  6
BYLAYER
 10
19.6059330320657779
 20
7.8848909024522005
 30
0.0
 11
19.6400329426615983
 21
8.0524973177760995
 31
0.0
  0
LINE
  5
D0
100
AcDbEntity
100
AcDbLine
  8
0
 62
256
370
-1
  6
BYLAYER
 10
19.568913179769801
 20
7.7179051398963594
 30
0.0
 11
19.6059330320657779
 21
7.8848909024522005
 31
0.0
  0
LINE
  5
D1
100
AcDbEntity
100
AcDbLine
  8
0
 62
256
370
-1
  6
BYLAYER
 10
19.5289846623792513
 20
7.5515908955895004
 30
0.0
 11
19.568913179769801
 21
7.7179051398963594
 31
0.0
  0
LINE
  5
D2
100
AcDbEntity
100
AcDbLine
  8
0
 62
256
370
-1
  6
BYLAYER
 10
19.48615964250736
 20
7.3859988304615403
 30
0.0
 11
19.5289846623792513
 21
7.5515908955895004
 31
0.0
  0
LINE
  5
D3
100
AcDbEntity
100
AcDbLine
  8
0
 62
256
370
-1
  6
BYLAYER
 10
19.4404511650700194
 20
7.2211793854596502
 30
0.0
 11
19.48615964250736
 21
7.3859988304615403
 31
0.0
  0
LINE
  5
D4
100
AcDbEntity
100
AcDbLine
  8
0
 62
256
370
-1
  6
BYLAYER
 10
19.3918731533122397
 20
7.0571827661834199
 30
0.0
 11
19.4404511650700194
 21
7.2211793854596502
 31
0.0
  0
LINE
  5
D5
100
AcDbEntity
100
AcDbLine
  8
0
 62
256
370
-1
  6
BYLAYER
 10
19.3404404045669907
 20
6.8940589275917503
 30
0.0
 11
19.3918731533122397
 21
7.0571827661834199
 31
0.0
  0
LINE
  5
D6
100
AcDbEntity
100
AcDbLine
  8
0
 62
256
370
-1
  6
BYLAYER
 10
19.286168585747788
 20
6.7318575587860998
 30
0.0
 11
19.3404404045669907
 21
6.8940589275917503
 31
0.0
  0
LINE
  5
D7
100
AcDbEntity
100
AcDbLine
  8
0
 62
256
370
-1
  6
BYLAYER
 10
19.2290742285763905
 20
6.5706280678746793
 30
0.0
 11
19.286168585747788
 21
6.7318575587860998
 31
0.0
  0
LINE
  5
D8
100
AcDbEntity
100
AcDbLine
  8
0
 62
256
370
-1
  6
BYLAYER
 10
16.0358985208083489
 20
15.19582957744616
 30
0.0
 11
17.9484530897489805
 21
15.6827209449324698
 31
0.0
  0
LINE
  5
D9
100
AcDbEntity
100
AcDbLine
  8
0
 62
256
370
-1
  6
BYLAYER
 10
18.0477765789066105
 20
15.5434745487064898
 30
0.0
 11
17.9484530897489805
 21
15.6827209449324698
 31
0.0
  0
LINE
  5
DA
100
AcDbEntity
100
AcDbLine
  8
0
 62
256
370
-1
  6
BYLAYER
 10
18.1446547559138978
 20
15.4025159264795501
 30
0.0
 11
18.0477765789066105
 21
15.5434745487064898
 31
0.0
  0
LINE
  5
DB
100
AcDbEntity
100
AcDbLine
  8
0
 62
256
370
-1
  6
BYLAYER
 10
18.2390581107396486
 20
15.2598880156135088
 30
0.0
 11
18.1446547559138978
 21
15.4025159264795501
 31
0.0
  0
LINE
  5
DC
100
AcDbEntity
100
AcDbLine
  8
0
 62
256
370
-1
  6
BYLAYER
 10
18.330957887207461
 20
15.1156342619516497
 30
0.0
 11
18.2390581107396486
 21
15.2598880156135088
 31
0.0
  0
LINE
  5
DD
100
AcDbEntity
100
AcDbLine
  8
0
 62
256
370
-1
  6
BYLAYER
 10
18.4203260917551894
 20
14.9697986065847708
 30
0.0
 11
18.330957887207461
 21
15.1156342619516497
 31
0.0
  0
LINE
  5
DE
100
AcDbEntity
100
AcDbLine
  8
0
 62
256
370
-1
  6
BYLAYER
 10
12.8304350915816894
 20
13.0436337394712893
 30
0.0
 11
12.8844796571369802
 21
12.9941110192667502
 31
0.0
  0
LINE
  5
DF
100
AcDbEntity
100
AcDbLine
  8
0
 62
256
370
-1
  6
BYLAYER
 10
12.8844796571369802
 20
12.9941110192667502
 30
0.0
 11
12.9376517008022809
 21
12.9436526338885702
 31
0.0
  0
LINE
  5
E0
100
AcDbEntity
100
AcDbLine
  8
0
 62
256
370
-1
  6
BYLAYER
 10
12.9376517008022809
 20
12.9436526338885702
 30
0.0
 11
12.9899350258579904
 21
12.8922739534497399
 31
0.0
  0
LINE
  5
E1
100
AcDbEntity
100
AcDbLine
  8
0
 62
256
370
-1
  6
BYLAYER
 10
12.9899350258579904
 20
12.8922739534497399
 30
0.0
 11
13.041313706296819
 21
12.8399906283940304
 31
0.0
  0
LINE
  5
E2
100
AcDbEntity
100
AcDbLine
  8
0
 62
256
370
-1
  6
BYLAYER
 10
13.041313706296819
 20
12.8399906283940304
 30
0.0
 11
13.0917720916750007
 21
12.7868185847287297
 31
0.0
  0
LINE
  5
E3
100
AcDbEntity
100
AcDbLine
  8
0
 62
256
370
-1
  6
BYLAYER
 10
13.0917720916750007
 20
12.7868185847287297
 30
0.0
 11
13.1412948118795398
 21
12.7327740191734406
 31
0.0
  0
LINE
  5
E4
100
AcDbEntity
100
AcDbLine
  8
0
 62
256
370
-1
  6
BYLAYER
 10
13.1412948118795398
 20
12.7327740191734406
 30
0.0
 11
13.1898667818101298
 21
12.6778733942263706
 31
0.0
  0
LINE
  5
E5
100
AcDbEntity
100
AcDbLine
  8
0
 62
256
370
-1
  6
BYLAYER
 10
13.1898667818101298
 20
12.6778733942263706
 30
0.0
 11
16.0358985208083489
 21
15.19582957744616
 31
0.0
  0
LINE
  5
E6
100
AcDbEntity
100
AcDbLine
  8
0
 62
256
370
-1
  6
BYLAYER
 10
12.7755344666346193
 20
13.0922057094018811
 30
0.0
 11
12.8304350915816894
 21
13.0436337394712893
 31
0.0
  0
LINE
  5
E7
100
AcDbEntity
100
AcDbLine
  8
0
 62
256
370
-1
  6
BYLAYER
 10
6.8295186311943503
 20
0.6563434315929406
 30
0.0
 11
6.9917199999999999
 21
0.6020716127737291
 31
0.0
  0
LINE
  5
E8
100
AcDbEntity
100
AcDbLine
  8
0
 62
256
370
-1
  6
BYLAYER
 10
6.6682891402829405
 20
0.7134377887643399
 30
0.0
 11
6.8295186311943503
 21
0.6563434315929406
 31
0.0
  0
LINE
  5
E9
100
AcDbEntity
100
AcDbLine
  8
0
 62
256
370
-1
  6
BYLAYER
 10
6.5080806393305402
 20
0.7733372927936593
 30
0.0
 11
6.6682891402829405
 21
0.7134377887643399
 31
0.0
  0
LINE
  5
EA
100
AcDbEntity
100
AcDbLine
  8
0
 62
256
370
-1
  6
BYLAYER
 10
6.3489419293985501
 20
0.8360236977117204
 30
0.0
 11
6.5080806393305402
 21
0.7733372927936593
 31
0.0
  0
LINE
  5
EB
100
AcDbEntity
100
AcDbLine
  8
0
 62
256
370
-1
  6
BYLAYER
 10
6.1909214856796
 20
0.9014779086323195
 30
0.0
 11
6.3489419293985501
 21
0.8360236977117204
 31
0.0
  0
LINE
  5
EC
100
AcDbEntity
100
AcDbLine
  8
0
 62
256
370
-1
  6
BYLAYER
 10
6.0340674427316499
 20
0.9696799875687496
 30
0.0
 11
6.1909214856796
 21
0.9014779086323195
 31
0.0
  0
LINE
  5
ED
100
AcDbEntity
100
AcDbLine
  8
0
 62
256
370
-1
  6
BYLAYER
 10
5.8784275798156402
 20
1.0406091595070706
 30
0.0
 11
6.0340674427316499
 21
0.9696799875687496
 31
0.0
  0
LINE
  5
EE
100
AcDbEntity
100
AcDbLine
  8
0
 62
256
370
-1
  6
BYLAYER
 10
5.7240493063415299
 20
1.1142438187343995
 30
0.0
 11
5.8784275798156402
 21
1.0406091595070706
 31
0.0
  0
LINE
  5
EF
100
AcDbEntity
100
AcDbLine
  8
0
 62
256
370
-1
  6
BYLAYER
 10
5.5709796474269302
 20
1.1905615354202403
 30
0.0
 11
5.7240493063415299
 21
1.1142438187343995
 31
0.0
  0
LINE
  5
F0
100
AcDbEntity
100
AcDbLine
  8
0
 62
256
370
-1
  6
BYLAYER
 10
5.4192652295727601
 20
1.2695390624487608
 30
0.0
 11
5.5709796474269302
 21
1.1905615354202403
 31
0.0
  0
LINE
  5
F1
100
AcDbEntity
100
AcDbLine
  8
0
 62
256
370
-1
  6
BYLAYER
 10
5.2689522664603903
 20
1.3511523425001606
 30
0.0
 11
5.4192652295727601
 21
1.2695390624487608
 31
0.0
  0
LINE
  5
F2
100
AcDbEntity
100
AcDbLine
  8
0
 62
256
370
-1
  6
BYLAYER
 10
5.1200865448744803
 20
1.4353765153787403
 30
0.0
 11
5.2689522664603903
 21
1.3511523425001606
 31
0.0
  0
LINE
  5
F3
100
AcDbEntity
100
AcDbLine
  8
0
 62
256
370
-1
  6
BYLAYER
 10
4.9727134107559596
 20
1.5221859255855392
 30
0.0
 11
5.1200865448744803
 21
1.4353765153787403
 31
0.0
  0
LINE
  5
F4
100
AcDbEntity
100
AcDbLine
  8
0
 62
256
370
-1
  6
BYLAYER
 10
4.8268777553890798
 20
1.6115541301332694
 30
0.0
 11
4.9727134107559596
 21
1.5221859255855392
 31
0.0
  0
LINE
  5
F5
100
AcDbEntity
100
AcDbLine
  8
0
 62
256
370
-1
  6
BYLAYER
 10
4.6826240017272198
 20
1.7034539066010801
 30
0.0
 11
4.8268777553890798
 21
1.6115541301332694
 31
0.0
  0
LINE
  5
F6
100
AcDbEntity
100
AcDbLine
  8
0
 62
256
370
-1
  6
BYLAYER
 10
4.5399960908611696
 20
1.7978572614268291
 30
0.0
 11
4.6826240017272198
 21
1.7034539066010801
 31
0.0
  0
LINE
  5
F7
100
AcDbEntity
100
AcDbLine
  8
0
 62
256
370
-1
  6
BYLAYER
 10
4.39903746863423
 20
1.89473543843412
 30
0.0
 11
4.5399960908611696
 21
1.7978572614268291
 31
0.0
  0
LINE
  5
F8
100
AcDbEntity
100
AcDbLine
  8
0
 62
256
370
-1
  6
BYLAYER
 10
4.2597910724082499
 20
1.9940589275917606
 30
0.0
 11
4.39903746863423
 21
1.89473543843412
 31
0.0
  0
LINE
  5
F9
100
AcDbEntity
100
AcDbLine
  8
0
 62
256
370
-1
  6
BYLAYER
 10
4.74297485044967
 20
3.9103210859772597
 30
0.0
 11
4.2597910724082499
 21
1.9940589275917606
 31
0.0
  0
LINE
  5
FA
100
AcDbEntity
100
AcDbLine
  8
0
 62
256
370
-1
  6
BYLAYER
 10
7.2646386231143598
 20
6.7526452355306006
 30
0.0
 11
4.74297485044967
 21
3.9103210859772597
 31
0.0
  0
LINE
  5
FB
100
AcDbEntity
100
AcDbLine
  8
0
 62
256
370
-1
  6
BYLAYER
 10
7.2646386231143598
 20
6.7526452355306006
 30
0.0
 11
7.2097379981672898
 21
6.8012172054611799
 31
0.0
  0
LINE
  5
FC
100
AcDbEntity
100
AcDbLine
  8
0
 62
256
370
-1
  6
BYLAYER
 10
7.2097379981672898
 20
6.8012172054611799
 30
0.0
 11
7.1556934326119901
 21
6.85073992566572
 31
0.0
  0
LINE
  5
FD
100
AcDbEntity
100
AcDbLine
  8
0
 62
256
370
-1
  6
BYLAYER
 10
7.1556934326119901
 20
6.85073992566572
 30
0.0
 11
7.1025213889467
 21
6.9011983110438999
 31
0.0
  0
LINE
  5
FE
100
AcDbEntity
100
AcDbLine
  8
0
 62
256
370
-1
  6
BYLAYER
 10
7.1025213889467
 20
6.9011983110438999
 30
0.0
 11
7.0502380638909905
 21
6.95257699148274
 31
0.0
  0
LINE
  5
FF
100
AcDbEntity
100
AcDbLine
  8
0
 62
256
370
-1
  6
BYLAYER
 10
7.0502380638909905
 20
6.95257699148274
 30
0.0
 11
6.9988593834521495
 21
7.0048603165384495
 31
0.0
  0
LINE
  5
100
100
AcDbEntity
100
AcDbLine
  8
0
 62
256
370
-1
  6
BYLAYER
 10
6.9988593834521495
 20
7.0048603165384495
 30
0.0
 11
6.9484009980739696
 21
7.0580323602037396
 31
0.0
  0
LINE
  5
101
100
AcDbEntity
100
AcDbLine
  8
0
 62
256
370
-1
  6
BYLAYER
 10
6.9484009980739696
 20
7.0580323602037396
 30
0.0
 11
6.8988782778694304
 21
7.1120769257590304
 31
0.0
  0
LINE
  5
102
100
AcDbEntity
100
AcDbLine
  8
0
 62
256
370
-1
  6
BYLAYER
 10
6.8988782778694304
 20
7.1120769257590304
 30
0.0
 11
6.8503063079388502
 21
7.1669775507061102
 31
0.0
  0
LINE
  5
103
100
AcDbEntity
100
AcDbLine
  8
0
 62
256
370
-1
  6
BYLAYER
 10
6.8503063079388502
 20
7.1669775507061102
 30
0.0
 11
4.0042745689406303
 21
4.6490213674863101
 31
0.0
  0
LINE
  5
104
100
AcDbEntity
100
AcDbLine
  8
0
 62
256
370
-1
  6
BYLAYER
 10
4.0042745689406303
 20
4.6490213674863101
 30
0.0
 11
2.0917199999999996
 21
4.1621300000000003
 31
0.0
  0
LINE
  5
105
100
AcDbEntity
100
AcDbLine
  8
0
 62
256
370
-1
  6
BYLAYER
 10
1.9923965108423705
 20
4.3013763962259901
 30
0.0
 11
2.0917199999999996
 21
4.1621300000000003
 31
0.0
  0
LINE
  5
106
100
AcDbEntity
100
AcDbLine
  8
0
 62
256
370
-1
  6
BYLAYER
 10
1.8955183338350796
 20
4.44233501845292
 30
0.0
 11
1.9923965108423705
 21
4.3013763962259901
 31
0.0
  0
LINE
  5
107
100
AcDbEntity
100
AcDbLine
  8
0
 62
256
370
-1
  6
BYLAYER
 10
1.8011149790093306
 20
4.58496292931898
 30
0.0
 11
1.8955183338350796
 21
4.44233501845292
 31
0.0
  0
LINE
  5
108
100
AcDbEntity
100
AcDbLine
  8
0
 62
256
370
-1
  6
BYLAYER
 10
1.7092152025415093
 20
4.7292166829808302
 30
0.0
 11
1.8011149790093306
 21
4.58496292931898
 31
0.0
  0
LINE
  5
109
100
AcDbEntity
100
AcDbLine
  8
0
 62
256
370
-1
  6
BYLAYER
 10
1.6198469979937897
 20
4.87505233834771
 30
0.0
 11
1.7092152025415093
 21
4.7292166829808302
 31
0.0
  0
LINE
  5
10A
100
AcDbEntity
100
AcDbLine
  8
0
 62
256
370
-1
  6
BYLAYER
 10
1.5330375877869908
 20
5.0224254724662396
 30
0.0
 11
1.6198469979937897
 21
4.87505233834771
 31
0.0
  0
LINE
  5
10B
100
AcDbEntity
100
AcDbLine
  8
0
 62
256
370
-1
  6
BYLAYER
 10
1.4488134149084093
 20
5.17129119405213
 30
0.0
 11
1.5330375877869908
 21
5.0224254724662396
 31
0.0
  0
LINE
  5
10C
100
AcDbEntity
100
AcDbLine
  8
0
 62
256
370
-1
  6
BYLAYER
 10
1.3672001348570006
 20
5.3216041571645096
 30
0.0
 11
1.4488134149084093
 21
5.17129119405213
 31
0.0
  0
LINE
  5
10D
100
AcDbEntity
100
AcDbLine
  8
0
 62
256
370
-1
  6
BYLAYER
 10
1.2882226078284802
 20
5.4733185750186797
 30
0.0
 11
1.3672001348570006
 21
5.3216041571645096
 31
0.0
  0
LINE
  5
10E
100
AcDbEntity
100
AcDbLine
  8
0
 62
256
370
-1
  6
BYLAYER
 10
1.21190489114265
 20
5.6263882339332802
 30
0.0
 11
1.2882226078284802
 21
5.4733185750186797
 31
0.0
  0
LINE
  5
10F
100
AcDbEntity
100
AcDbLine
  8
0
 62
256
370
-1
  6
BYLAYER
 10
1.1382702319153193
 20
5.78076650740738
 30
0.0
 11
1.21190489114265
 21
5.6263882339332802
 31
0.0
  0
LINE
  5
110
100
AcDbEntity
100
AcDbLine
  8
0
 62
256
370
-1
  6
BYLAYER
 10
1.0673410599770001
 20
5.9364063703234002
 30
0.0
 11
1.1382702319153193
 21
5.78076650740738
 31
0.0
  0
LINE
  5
111
100
AcDbEntity
100
AcDbLine
  8
0
 62
256
370
-1
  6
BYLAYER
 10
0.99913898104057
 20
6.0932604132713601
 30
0.0
 11
1.0673410599770001
 21
5.9364063703234002
 31
0.0
  0
LINE
  5
112
100
AcDbEntity
100
AcDbLine
  8
0
 62
256
370
-1
  6
BYLAYER
 10
0.9336847701199709
 20
6.2512808569903004
 30
0.0
 11
0.99913898104057
 21
6.0932604132713601
 31
0.0
  0
LINE
  5
113
100
AcDbEntity
100
AcDbLine
  8
0
 62
256
370
-1
  6
BYLAYER
 10
0.8709983652019098
 20
6.4104195669222896
 30
0.0
 11
0.9336847701199709
 21
6.2512808569903004
 31
0.0
  0
LINE
  5
114
100
AcDbEntity
100
AcDbLine
  8
0
 62
256
370
-1
  6
BYLAYER
 10
0.8110988611725904
 20
6.5706280678746793
 30
0.0
 11
0.8709983652019098
 21
6.4104195669222896
 31
0.0
  0
LINE
  5
115
100
AcDbEntity
100
AcDbLine
  8
0
 62
256
370
-1
  6
BYLAYER
 10
0.7540045040011805
 20
6.7318575587861105
 30
0.0
 11
0.8110988611725904
 21
6.5706280678746793
 31
0.0
  0
LINE
  5
116
100
AcDbEntity
100
AcDbLine
  8
0
 62
256
370
-1
  6
BYLAYER
 10
0.6997326851819796
 20
6.8940589275917601
 30
0.0
 11
0.7540045040011805
 21
6.7318575587861105
 31
0.0
  0
LINE
  5
117
100
AcDbEntity
100
AcDbLine
  8
0
 62
256
370
-1
  6
BYLAYER
 10
0.6482999364367394
 20
7.0571827661834199
 30
0.0
 11
0.6997326851819796
 21
6.8940589275917601
 31
0.0
  0
LINE
  5
118
100
AcDbEntity
100
AcDbLine
  8
0
 62
256
370
-1
  6
BYLAYER
 10
0.5997219246789598
 20
7.2211793854596502
 30
0.0
 11
0.6482999364367394
 21
7.0571827661834199
 31
0.0
  0
LINE
  5
119
100
AcDbEntity
100
AcDbLine
  8
0
 62
256
370
-1
  6
BYLAYER
 10
0.5540134472416192
 20
7.3859988304615403
 30
0.0
 11
0.5997219246789598
 21
7.2211793854596502
 31
0.0
  0
LINE
  5
11A
100
AcDbEntity
100
AcDbLine
  8
0
 62
256
370
-1
  6
BYLAYER
 10
0.5111884273697207
 20
7.5515908955895004
 30
0.0
 11
0.5540134472416192
 21
7.3859988304615403
 31
0.0
  0
LINE
  5
11B
100
AcDbEntity
100
AcDbLine
  8
0
 62
256
370
-1
  6
BYLAYER
 10
0.4712599099791799
 20
7.7179051398963594
 30
0.0
 11
0.5111884273697207
 21
7.5515908955895004
 31
0.0
  0
LINE
  5
11C
100
AcDbEntity
100
AcDbLine
  8
0
 62
256
370
-1
  6
BYLAYER
 10
0.4342400576831906
 20
7.8848909024522005
 30
0.0
 11
0.4712599099791799
 21
7.7179051398963594
 31
0.0
  0
LINE
  5
11D
100
AcDbEntity
100
AcDbLine
  8
0
 62
256
370
-1
  6
BYLAYER
 10
0.4001401470873809
 20
8.0524973177760995
 30
0.0
 11
0.4342400576831906
 21
7.8848909024522005
 31
0.0
  0
LINE
  5
11E
100
AcDbEntity
100
AcDbLine
  8
0
 62
256
370
-1
  6
BYLAYER
 10
0.3689705653548501
 20
8.22067333133033
 30
0.0
 11
0.4001401470873809
 21
8.0524973177760995
 31
0.0
  0
LINE
  5
11F
100
AcDbEntity
100
AcDbLine
  8
0
 62
256
370
-1
  6
BYLAYER
 10
0.34074080704214
 20
8.3893677150719803
 30
0.0
 11
0.3689705653548501
 21
8.22067333133033
 31
0.0
  0
LINE
  5
120
100
AcDbEntity
100
AcDbLine
  8
0
 62
256
370
-1
  6
BYLAYER
 10
2.0374052997801302
 20
9.4027071557851158
 30
0.0
 11
0.34074080704214
 21
8.3893677150719803
 31
0.0
  0
LINE
  5
121
100
AcDbEntity
100
AcDbLine
  8
0
 62
256
370
-1
  6
BYLAYER
 10
5.83031753378323
 20
9.6294482827409134
 30
0.0
 11
2.0374052997801302
 21
9.4027071557851158
 31
0.0
  0
LINE
  5
122
100
AcDbEntity
100
AcDbLine
  8
0
 62
256
370
-1
  6
BYLAYER
 10
5.83031753378323
 20
9.6294482827409134
 30
0.0
 11
5.8258424989052804
 21
9.7026144562458736
 31
0.0
  0
LINE
  5
123
100
AcDbEntity
100
AcDbLine
  8
0
 62
256
370
-1
  6
BYLAYER
 10
5.8258424989052804
 20
9.7026144562458736
 30
0.0
 11
5.8226450713942901
 21
9.7758475863157344
 31
0.0
  0
LINE
  5
124
100
AcDbEntity
100
AcDbLine
  8
0
 62
256
370
-1
  6
BYLAYER
 10
5.8226450713942901
 20
9.7758475863157344
 30
0.0
 11
5.8207262252176504
 21
9.8491253654296482
 31
0.0
  0
LINE
  5
125
100
AcDbEntity
100
AcDbLine
  8
0
 62
256
370
-1
  6
BYLAYER
 10
5.8207262252176504
 20
9.8491253654296482
 30
0.0
 11
5.8200865448744903
 21
9.9224254724662391
 31
0.0
  0
LINE
  5
126
100
AcDbEntity
100
AcDbLine
  8
0
 62
256
370
-1
  6
BYLAYER
 10
5.8200865448744903
 20
9.9224254724662391
 30
0.0
 11
5.8207262252176504
 21
9.9957255795028299
 31
0.0
  0
LINE
  5
127
100
AcDbEntity
100
AcDbLine
  8
0
 62
256
370
-1
  6
BYLAYER
 10
5.8207262252176504
 20
9.9957255795028299
 30
0.0
 11
5.8226450713942901
 21
10.069003358616742
 31
0.0
  0
LINE
  5
128
100
AcDbEntity
100
AcDbLine
  8
0
 62
256
370
-1
  6
BYLAYER
 10
5.8226450713942901
 20
10.069003358616742
 30
0.0
 11
5.8258424989052804
 21
10.1422364886866028
 31
0.0
  0
LINE
  5
129
100
AcDbEntity
100
AcDbLine
  8
0
 62
256
370
-1
  6
BYLAYER
 10
5.8258424989052804
 20
10.1422364886866028
 30
0.0
 11
5.83031753378323
 21
10.2154026621915648
 31
0.0
  0
LINE
  5
12A
100
AcDbEntity
100
AcDbLine
  8
0
 62
256
370
-1
  6
BYLAYER
 10
5.83031753378323
 20
10.2154026621915648
 30
0.0
 11
2.0374052997801302
 21
10.4473871124240318
 31
0.0
  0
LINE
  5
12B
100
AcDbEntity
100
AcDbLine
  8
0
 62
256
370
-1
  6
BYLAYER
 10
2.0374052997801302
 20
10.4473871124240318
 30
0.0
 11
0.34074080704214
 21
11.4554832298604996
 31
0.0
  0
LINE
  5
12C
100
AcDbEntity
100
AcDbLine
  8
0
 62
256
370
-1
  6
BYLAYER
 10
0.3689705653548501
 20
11.6241776136021606
 30
0.0
 11
0.34074080704214
 21
11.4554832298604996
 31
0.0
  0
LINE
  5
12D
100
AcDbEntity
100
AcDbLine
  8
0
 62
256
370
-1
  6
BYLAYER
 10
0.4001401470873809
 20
11.7923536271563805
 30
0.0
 11
0.3689705653548501
 21
11.6241776136021606
 31
0.0
  0
LINE
  5
12E
100
AcDbEntity
100
AcDbLine
  8
0
 62
256
370
-1
  6
BYLAYER
 10
0.4342400576831906
 20
11.9599600424802794
 30
0.0
 11
0.4001401470873809
 21
11.7923536271563805
 31
0.0
  0
LINE
  5
12F
100
AcDbEntity
100
AcDbLine
  8
0
 62
256
370
-1
  6
BYLAYER
 10
0.4712599099791799
 20
12.1269458050361205
 30
0.0
 11
0.4342400576831906
 21
11.9599600424802794
 31
0.0
  0
LINE
  5
130
100
AcDbEntity
100
AcDbLine
  8
0
 62
256
370
-1
  6
BYLAYER
 10
0.5111884273697207
 20
12.2932600493429796
 30
0.0
 11
0.4712599099791799
 21
12.1269458050361205
 31
0.0
  0
LINE
  5
131
100
AcDbEntity
100
AcDbLine
  8
0
 62
256
370
-1
  6
BYLAYER
 10
0.5540134472416192
 20
12.4588521144709397
 30
0.0
 11
0.5111884273697207
 21
12.2932600493429796
 31
0.0
  0
LINE
  5
132
100
AcDbEntity
100
AcDbLine
  8
0
 62
256
370
-1
  6
BYLAYER
 10
0.5997219246789598
 20
12.6236715594728306
 30
0.0
 11
0.5540134472416192
 21
12.4588521144709397
 31
0.0
  0
LINE
  5
133
100
AcDbEntity
100
AcDbLine
  8
0
 62
256
370
-1
  6
BYLAYER
 10
0.6482999364367394
 20
12.78766817874906
 30
0.0
 11
0.5997219246789598
 21
12.6236715594728306
 31
0.0
  0
LINE
  5
134
100
AcDbEntity
100
AcDbLine
  8
0
 62
256
370
-1
  6
BYLAYER
 10
0.6997326851819796
 20
12.9507920173407207
 30
0.0
 11
0.6482999364367394
 21
12.78766817874906
 31
0.0
  0
LINE
  5
135
100
AcDbEntity
100
AcDbLine
  8
0
 62
256
370
-1
  6
BYLAYER
 10
0.7540045040011805
 20
13.1129933861463694
 30
0.0
 11
0.6997326851819796
 21
12.9507920173407207
 31
0.0
  0
LINE
  5
136
100
AcDbEntity
100
AcDbLine
  8
0
 62
256
370
-1
  6
BYLAYER
 10
0.8110988611725798
 20
13.2742228770577899
 30
0.0
 11
0.7540045040011805
 21
13.1129933861463694
 31
0.0
  0
LINE
  5
137
100
AcDbEntity
100
AcDbLine
  8
0
 62
256
370
-1
  6
BYLAYER
 10
0.8709983652019098
 20
13.4344313780101796
 30
0.0
 11
0.8110988611725798
 21
13.2742228770577899
 31
0.0
  0
LINE
  5
138
100
AcDbEntity
100
AcDbLine
  8
0
 62
256
370
-1
  6
BYLAYER
 10
0.9336847701199709
 20
13.5935700879421795
 30
0.0
 11
0.8709983652019098
 21
13.4344313780101796
 31
0.0
  0
LINE
  5
139
100
AcDbEntity
100
AcDbLine
  8
0
 62
256
370
-1
  6
BYLAYER
 10
0.99913898104057
 20
13.7515905316611207
 30
0.0
 11
0.9336847701199709
 21
13.5935700879421795
 31
0.0
  0
LINE
  5
13A
100
AcDbEntity
100
AcDbLine
  8
0
 62
256
370
-1
  6
BYLAYER
 10
1.0673410599770001
 20
13.9084445746090797
 30
0.0
 11
0.99913898104057
 21
13.7515905316611207
 31
0.0
  0
LINE
  5
13B
100
AcDbEntity
100
AcDbLine
  8
0
 62
256
370
-1
  6
BYLAYER
 10
1.1382702319153193
 20
14.0640844375250893
 30
0.0
 11
1.0673410599770001
 21
13.9084445746090797
 31
0.0
  0
LINE
  5
13C
100
AcDbEntity
100
AcDbLine
  8
0
 62
256
370
-1
  6
BYLAYER
 10
1.21190489114265
 20
14.2184627109991997
 30
0.0
 11
1.1382702319153193
 21
14.0640844375250893
 31
0.0
  0
LINE
  5
13D
100
AcDbEntity
100
AcDbLine
  8
0
 62
256
370
-1
  6
BYLAYER
 10
4.8268777553890798
 20
18.2332968147992105
 30
0.0
 11
4.6826240017272198
 21
18.1413970383313909
 31
0.0
  0
LINE
  5
13E
100
AcDbEntity
100
AcDbLine
  8
0
 62
256
370
-1
  6
BYLAYER
 10
4.9727134107559596
 20
18.3226650193469425
 30
0.0
 11
4.8268777553890798
 21
18.2332968147992105
 31
0.0
  0
LINE
  5
13F
100
AcDbEntity
100
AcDbLine
  8
0
 62
256
370
-1
  6
BYLAYER
 10
5.1200865448744901
 20
18.4094744295537396
 30
0.0
 11
4.9727134107559596
 21
18.3226650193469425
 31
0.0
  0
LINE
  5
140
100
AcDbEntity
100
AcDbLine
  8
0
 62
256
370
-1
  6
BYLAYER
 10
5.2689522664603903
 20
18.4936986024323176
 30
0.0
 11
5.1200865448744901
 21
18.4094744295537396
 31
0.0
  0
LINE
  5
141
100
AcDbEntity
100
AcDbLine
  8
0
 62
256
370
-1
  6
BYLAYER
 10
5.4192652295727601
 20
18.5753118824837173
 30
0.0
 11
5.2689522664603903
 21
18.4936986024323176
 31
0.0
  0
LINE
  5
142
100
AcDbEntity
100
AcDbLine
  8
0
 62
256
370
-1
  6
BYLAYER
 10
5.5709796474269302
 20
18.6542894095122378
 30
0.0
 11
5.4192652295727601
 21
18.5753118824837173
 31
0.0
  0
LINE
  5
143
100
AcDbEntity
100
AcDbLine
  8
0
 62
256
370
-1
  6
BYLAYER
 10
5.7240493063415299
 20
18.7306071261980698
 30
0.0
 11
5.5709796474269302
 21
18.6542894095122378
 31
0.0
  0
LINE
  5
144
100
AcDbEntity
100
AcDbLine
  8
0
 62
256
370
-1
  6
BYLAYER
 10
5.8784275798156296
 20
18.8042417854254111
 30
0.0
 11
5.7240493063415299
 21
18.7306071261980698
 31
0.0
  0
LINE
  5
145
100
AcDbEntity
100
AcDbLine
  8
0
 62
256
370
-1
  6
BYLAYER
 10
6.0340674427316499
 20
18.8751709573637214
 30
0.0
 11
5.8784275798156296
 21
18.8042417854254111
 31
0.0
  0
LINE
  5
146
100
AcDbEntity
100
AcDbLine
  8
0
 62
256
370
-1
  6
BYLAYER
 10
6.1909214856796098
 20
18.9433730363001587
 30
0.0
 11
6.0340674427316499
 21
18.8751709573637214
 31
0.0
  0
LINE
  5
147
100
AcDbEntity
100
AcDbLine
  8
0
 62
256
370
-1
  6
BYLAYER
 10
6.3489419293985501
 20
19.0088272472207507
 30
0.0
 11
6.1909214856796098
 21
18.9433730363001587
 31
0.0
  0
LINE
  5
148
100
AcDbEntity
100
AcDbLine
  8
0
 62
256
370
-1
  6
BYLAYER
 10
6.5080806393305402
 20
19.0715136521388189
 30
0.0
 11
6.3489419293985501
 21
19.0088272472207507
 31
0.0
  0
LINE
  5
149
100
AcDbEntity
100
AcDbLine
  8
0
 62
256
370
-1
  6
BYLAYER
 10
6.6682891402829405
 20
19.13141315616814
 30
0.0
 11
6.5080806393305402
 21
19.0715136521388189
 31
0.0
  0
LINE
  5
14A
100
AcDbEntity
100
AcDbLine
  8
0
 62
256
370
-1
  6
BYLAYER
 10
6.8295186311943503
 20
19.1885075133395375
 30
0.0
 11
6.6682891402829405
 21
19.13141315616814
 31
0.0
  0
LINE
  5
14B
100
AcDbEntity
100
AcDbLine
  8
0
 62
256
370
-1
  6
BYLAYER
 10
6.9917199999999999
 20
19.2427793321587401
 30
0.0
 11
6.8295186311943503
 21
19.1885075133395375
 31
0.0
  0
LINE
  5
14C
100
AcDbEntity
100
AcDbLine
  8
0
 62
256
370
-1
  6
BYLAYER
 10
7.1548438385916704
 20
19.2942120809039821
 30
0.0
 11
6.9917199999999999
 21
19.2427793321587401
 31
0.0
  0
LINE
  5
14D
100
AcDbEntity
100
AcDbLine
  8
0
 62
256
370
-1
  6
BYLAYER
 10
7.3188404578678998
 20
19.3427900926617724
 30
0.0
 11
7.1548438385916704
 21
19.2942120809039821
 31
0.0
  0
LINE
  5
14E
100
AcDbEntity
100
AcDbLine
  8
0
 62
256
370
-1
  6
BYLAYER
 10
7.4836599028697801
 20
19.3884985700991095
 30
0.0
 11
7.3188404578678998
 21
19.3427900926617724
 31
0.0
  0
LINE
  5
14F
100
AcDbEntity
100
AcDbLine
  8
0
 62
256
370
-1
  6
BYLAYER
 10
7.64925196799775
 20
19.4313235899710008
 30
0.0
 11
7.4836599028697801
 21
19.3884985700991095
 31
0.0
  0
LINE
  5
150
100
AcDbEntity
100
AcDbLine
  8
0
 62
256
370
-1
  6
BYLAYER
 10
7.8155662123046099
 20
19.4712521073615505
 30
0.0
 11
7.64925196799775
 21
19.4313235899710008
 31
0.0
  0
LINE
  5
151
100
AcDbEntity
100
AcDbLine
  8
0
 62
256
370
-1
  6
BYLAYER
 10
7.9825519748604501
 20
19.5082719596575274
 30
0.0
 11
7.8155662123046099
 21
19.4712521073615505
 31
0.0
  0
LINE
  5
152
100
AcDbEntity
100
AcDbLine
  8
0
 62
256
370
-1
  6
BYLAYER
 10
8.15015839018435
 20
19.5423718702533478
 30
0.0
 11
7.9825519748604501
 21
19.5082719596575274
 31
0.0
  0
LINE
  5
153
100
AcDbEntity
100
AcDbLine
  8
0
 62
256
370
-1
  6
BYLAYER
 10
8.3183344037385698
 20
19.5735414519858821
 30
0.0
 11
8.15015839018435
 21
19.5423718702533478
 31
0.0
  0
LINE
  5
154
100
AcDbEntity
100
AcDbLine
  8
0
 62
256
370
-1
  6
BYLAYER
 10
8.4870287874802308
 20
19.6017712102985904
 30
0.0
 11
8.3183344037385698
 21
19.5735414519858821
 31
0.0
  0
LINE
  5
155
100
AcDbEntity
100
AcDbLine
  8
0
 62
256
370
-1
  6
BYLAYER
 10
9.5003682281933646
 20
17.9051067175605887
 30
0.0
 11
8.4870287874802308
 21
19.6017712102985904
 31
0.0
  0
LINE
  5
156
100
AcDbEntity
100
AcDbLine
  8
0
 62
256
370
-1
  6
BYLAYER
 10
9.7271093551491621
 20
14.1121944835575004
 30
0.0
 11
9.5003682281933646
 21
17.9051067175605887
 31
0.0
  0
LINE
  5
157
100
AcDbEntity
100
AcDbLine
  8
0
 62
256
370
-1
  6
BYLAYER
 10
9.7271093551491621
 20
14.1121944835575004
 30
0.0
 11
9.8002755286541259
 21
14.1166695184354509
 31
0.0
  0
LINE
  5
158
100
AcDbEntity
100
AcDbLine
  8
0
 62
256
370
-1
  6
BYLAYER
 10
9.8002755286541259
 20
14.1166695184354509
 30
0.0
 11
9.8735086587239849
 21
14.1198669459464412
 31
0.0
  0
LINE
  5
159
100
AcDbEntity
100
AcDbLine
  8
0
 62
256
370
-1
  6
BYLAYER
 10
9.8735086587239849
 20
14.1198669459464412
 30
0.0
 11
9.946786437837897
 21
14.1217857921230809
 31
0.0
  0
LINE
  5
15A
100
AcDbEntity
100
AcDbLine
  8
0
 62
256
370
-1
  6
BYLAYER
 10
9.946786437837897
 20
14.1217857921230809
 30
0.0
 11
10.0200865448744896
 21
14.1224254724662401
 31
0.0
  0
LINE
  5
15B
100
AcDbEntity
100
AcDbLine
  8
0
 62
256
370
-1
  6
BYLAYER
 10
10.0200865448744896
 20
14.1224254724662401
 30
0.0
 11
10.0933866519110804
 21
14.1217857921230809
 31
0.0
  0
LINE
  5
15C
100
AcDbEntity
100
AcDbLine
  8
0
 62
256
370
-1
  6
BYLAYER
 10
10.0933866519110804
 20
14.1217857921230809
 30
0.0
 11
10.1666644310249925
 21
14.1198669459464412
 31
0.0
  0
LINE
  5
15D
100
AcDbEntity
100
AcDbLine
  8
0
 62
256
370
-1
  6
BYLAYER
 10
10.1666644310249925
 20
14.1198669459464412
 30
0.0
 11
10.2398975610948515
 21
14.1166695184354509
 31
0.0
  0
LINE
  5
15E
100
AcDbEntity
100
AcDbLine
  8
0
 62
256
370
-1
  6
BYLAYER
 10
10.2398975610948515
 20
14.1166695184354509
 30
0.0
 11
10.3130637345998153
 21
14.1121944835575004
 31
0.0
  0
LINE
  5
15F
100
AcDbEntity
100
AcDbLine
  8
0
 62
256
370
-1
  6
BYLAYER
 10
10.3130637345998153
 20
14.1121944835575004
 30
0.0
 11
10.5450481848322823
 21
17.9051067175605887
 31
0.0
  0
LINE
  5
160
100
AcDbEntity
100
AcDbLine
  8
0
 62
256
370
-1
  6
BYLAYER
 10
10.5450481848322823
 20
17.9051067175605887
 30
0.0
 11
11.5531443022687501
 21
19.6017712102985904
 31
0.0
  0
LINE
  5
161
100
AcDbEntity
100
AcDbLine
  8
0
 62
256
370
-1
  6
BYLAYER
 10
11.7218386860104005
 20
19.5735414519858821
 30
0.0
 11
11.5531443022687501
 21
19.6017712102985904
 31
0.0
  0
LINE
  5
162
100
AcDbEntity
100
AcDbLine
  8
0
 62
256
370
-1
  6
BYLAYER
 10
11.890014699564631
 20
19.5423718702533478
 30
0.0
 11
11.7218386860104005
 21
19.5735414519858821
 31
0.0
  0
LINE
  5
163
100
AcDbEntity
100
AcDbLine
  8
0
 62
256
370
-1
  6
BYLAYER
 10
12.0576211148885299
 20
19.5082719596575274
 30
0.0
 11
11.890014699564631
 21
19.5423718702533478
 31
0.0
  0
LINE
  5
164
100
AcDbEntity
100
AcDbLine
  8
0
 62
256
370
-1
  6
BYLAYER
 10
12.2246068774443692
 20
19.4712521073615505
 30
0.0
 11
12.0576211148885299
 21
19.5082719596575274
 31
0.0
  0
LINE
  5
165
100
AcDbEntity
100
AcDbLine
  8
0
 62
256
370
-1
  6
BYLAYER
 10
12.3909211217512301
 20
19.4313235899710008
 30
0.0
 11
12.2246068774443692
 21
19.4712521073615505
 31
0.0
  0
LINE
  5
166
100
AcDbEntity
100
AcDbLine
  8
0
 62
256
370
-1
  6
BYLAYER
 10
12.5565131868792008
 20
19.3884985700991024
 30
0.0
 11
12.3909211217512301
 21
19.4313235899710008
 31
0.0
  0
LINE
  5
167
100
AcDbEntity
100
AcDbLine
  8
0
 62
256
370
-1
  6
BYLAYER
 10
12.7213326318810793
 20
19.3427900926617724
 30
0.0
 11
12.5565131868792008
 21
19.3884985700991024
 31
0.0
  0
LINE
  5
168
100
AcDbEntity
100
AcDbLine
  8
0
 62
256
370
-1
  6
BYLAYER
 10
12.8853292511573105
 20
19.2942120809039821
 30
0.0
 11
12.7213326318810793
 21
19.3427900926617724
 31
0.0
  0
LINE
  5
169
100
AcDbEntity
100
AcDbLine
  8
0
 62
256
370
-1
  6
BYLAYER
 10
13.0484530897489694
 20
19.2427793321587401
 30
0.0
 11
12.8853292511573105
 21
19.2942120809039821
 31
0.0
  0
LINE
  5
16A
100
AcDbEntity
100
AcDbLine
  8
0
 62
256
370
-1
  6
BYLAYER
 10
13.2106544585546199
 20
19.1885075133395375
 30
0.0
 11
13.0484530897489694
 21
19.2427793321587401
 31
0.0
  0
LINE
  5
16B
100
AcDbEntity
100
AcDbLine
  8
0
 62
256
370
-1
  6
BYLAYER
 10
13.3718839494660404
 20
19.13141315616814
 30
0.0
 11
13.2106544585546199
 21
19.1885075133395375
 31
0.0
  0
LINE
  5
16C
100
AcDbEntity
100
AcDbLine
  8
0
 62
256
370
-1
  6
BYLAYER
 10
13.5320924504184301
 20
19.0715136521388189
 30
0.0
 11
13.3718839494660404
 21
19.13141315616814
 31
0.0
  0
LINE
  5
16D
100
AcDbEntity
100
AcDbLine
  8
0
 62
256
370
-1
  6
BYLAYER
 10
13.69123116035043
 20
19.0088272472207507
 30
0.0
 11
13.5320924504184301
 21
19.0715136521388189
 31
0.0
  0
LINE
  5
16E
100
AcDbEntity
100
AcDbLine
  8
0
 62
256
370
-1
  6
BYLAYER
 10
13.8492516040693694
 20
18.9433730363001587
 30
0.0
 11
13.69123116035043
 21
19.0088272472207507
 31
0.0
  0
LINE
  5
16F
100
AcDbEntity
100
AcDbLine
  8
0
 62
256
370
-1
  6
BYLAYER
 10
14.0061056470173302
 20
18.8751709573637214
 30
0.0
 11
13.8492516040693694
 21
18.9433730363001587
 31
0.0
  0
LINE
  5
170
100
AcDbEntity
100
AcDbLine
  8
0
 62
256
370
-1
  6
BYLAYER
 10
14.1617455099333505
 20
18.8042417854254111
 30
0.0
 11
14.0061056470173302
 21
18.8751709573637214
 31
0.0
  0
LINE
  5
171
100
AcDbEntity
100
AcDbLine
  8
0
 62
256
370
-1
  6
BYLAYER
 10
14.3161237834074502
 20
18.7306071261980698
 30
0.0
 11
14.1617455099333505
 21
18.8042417854254111
 31
0.0
  0
LINE
  5
172
100
AcDbEntity
100
AcDbLine
  8
0
 62
256
370
-1
  6
BYLAYER
 10
14.4691934423220498
 20
18.6542894095122378
 30
0.0
 11
14.3161237834074502
 21
18.7306071261980698
 31
0.0
  0
LINE
  5
173
100
AcDbEntity
100
AcDbLine
  8
0
 62
256
370
-1
  6
BYLAYER
 10
14.6209078601762208
 20
18.5753118824837173
 30
0.0
 11
14.4691934423220498
 21
18.6542894095122378
 31
0.0
  0
LINE
  5
174
100
AcDbEntity
100
AcDbLine
  8
0
 62
256
370
-1
  6
BYLAYER
 10
14.7712208232885907
 20
18.4936986024323176
 30
0.0
 11
14.6209078601762208
 21
18.5753118824837173
 31
0.0
  0
LINE
  5
175
100
AcDbEntity
100
AcDbLine
  8
0
 62
256
370
-1
  6
BYLAYER
 10
14.9200865448744899
 20
18.4094744295537396
 30
0.0
 11
14.7712208232885907
 21
18.4936986024323176
 31
0.0
  0
LINE
  5
176
100
AcDbEntity
100
AcDbLine
  8
0
 62
256
370
-1
  6
BYLAYER
 10
15.0674596789930213
 20
18.3226650193469425
 30
0.0
 11
14.9200865448744899
 21
18.4094744295537396
 31
0.0
  0
LINE
  5
177
100
AcDbEntity
100
AcDbLine
  8
0
 62
256
370
-1
  6
BYLAYER
 10
15.2132953343599002
 20
18.2332968147992105
 30
0.0
 11
15.0674596789930213
 21
18.3226650193469425
 31
0.0
  0
LINE
  5
178
100
AcDbEntity
100
AcDbLine
  8
0
 62
256
370
-1
  6
BYLAYER
 10
15.3575490880217593
 20
18.1413970383313909
 30
0.0
 11
15.2132953343599002
 21
18.2332968147992105
 31
0.0
  0
LINE
  5
179
100
AcDbEntity
100
AcDbLine
  8
0
 62
256
370
-1
  6
BYLAYER
 10
15.5001769988878095
 20
18.0469936835056401
 30
0.0
 11
15.3575490880217593
 21
18.1413970383313909
 31
0.0
  0
LINE
  5
17A
100
AcDbEntity
100
AcDbLine
  8
0
 62
256
370
-1
  6
BYLAYER
 10
15.6411356211147403
 20
17.95011550649836
 30
0.0
 11
15.5001769988878095
 21
18.0469936835056401
 31
0.0
  0
LINE
  5
17B
100
AcDbEntity
100
AcDbLine
  8
0
 62
256
370
-1
  6
BYLAYER
 10
15.780382017340731
 20
17.8507920173407193
 30
0.0
 11
15.6411356211147403
 21
17.95011550649836
 31
0.0
  0
LINE
  5
17C
100
AcDbEntity
100
AcDbLine
  8
0
 62
256
370
-1
  6
BYLAYER
 10
15.2971982392993002
 20
15.9345298589552087
 30
0.0
 11
15.780382017340731
 21
17.8507920173407193
 31
0.0
  0
LINE
  5
17D
100
AcDbEntity
100
AcDbLine
  8
0
 62
256
370
-1
  6
BYLAYER
 10
12.7755344666346193
 20
13.0922057094018811
 30
0.0
 11
15.2971982392993002
 21
15.9345298589552087
 31
0.0
  0
LINE
  5
17E
100
AcDbEntity
100
AcDbLine
  8
0
 62
256
370
-1
  6
BYLAYER
 10
11.9870443134858107
 20
11.8893832410775797
 30
0.0
 11
11.4109357213670997
 21
12.3314469118167604
 31
0.0
  0
LINE
  5
17F
100
AcDbEntity
100
AcDbLine
  8
0
 62
256
370
-1
  6
BYLAYER
 10
11.4109357213670997
 20
12.3314469118167604
 30
0.0
 11
10.7400430563573437
 21
12.6093397525604001
 31
0.0
  0
LINE
  5
180
100
AcDbEntity
100
AcDbLine
  8
0
 62
256
370
-1
  6
BYLAYER
 10
7.3331722647803499
 20
10.6423819839491056
 30
0.0
 11
10.7400430563573437
 21
12.6093397525604001
 31
0.0
  0
LINE
  5
181
100
AcDbEntity
100
AcDbLine
  8
0
 62
256
370
-1
  6
BYLAYER
 10
7.3331722647803499
 20
10.6423819839491056
 30
0.0
 11
7.2383881918892499
 21
9.9224254724662408
 31
0.0
  0
LINE
  5
182
100
AcDbEntity
100
AcDbLine
  8
0
 62
256
370
-1
  6
BYLAYER
 10
7.2383881918892499
 20
9.9224254724662408
 30
0.0
 11
7.3331722647802504
 21
9.2024689609833104
 31
0.0
  0
LINE
  5
183
100
AcDbEntity
100
AcDbLine
  8
0
 62
256
370
-1
  6
BYLAYER
 10
7.3331722647802504
 20
9.2024689609833104
 30
0.0
 11
7.6110651055239806
 21
8.5315762959736308
 31
0.0
  0
LINE
  5
184
100
AcDbEntity
100
AcDbLine
  8
0
 62
256
370
-1
  6
BYLAYER
 10
7.6110651055239806
 20
8.5315762959736308
 30
0.0
 11
8.0531287762631401
 21
7.9554677038548895
 31
0.0
  0
LINE
  5
185
100
AcDbEntity
100
AcDbLine
  8
0
 62
256
370
-1
  6
BYLAYER
 10
8.0531287762631401
 20
7.9554677038548895
 30
0.0
 11
8.62923736838186
 21
7.51340403311566
 31
0.0
  0
LINE
  5
186
100
AcDbEntity
100
AcDbLine
  8
0
 62
256
370
-1
  6
BYLAYER
 10
8.62923736838186
 20
7.51340403311566
 30
0.0
 11
9.3001300333916213
 21
7.2355111923720994
 31
0.0
  0
LINE
  5
187
100
AcDbEntity
100
AcDbLine
  8
0
 62
256
370
-1
  6
BYLAYER
 10
9.3001300333916213
 20
7.2355111923720994
 30
0.0
 11
12.7070008249685991
 21
9.2024689609833548
 31
0.0
  0
LINE
  5
188
100
AcDbEntity
100
AcDbLine
  8
0
 62
256
370
-1
  6
BYLAYER
 10
12.7070008249685991
 20
9.2024689609833548
 30
0.0
 11
12.8017848978597399
 21
9.9224254724662693
 31
0.0
  0
LINE
  5
189
100
AcDbEntity
100
AcDbLine
  8
0
 62
256
370
-1
  6
BYLAYER
 10
12.8017848978597399
 20
9.9224254724662693
 30
0.0
 11
12.7070008249687092
 21
10.6423819839491323
 31
0.0
  0
LINE
  5
18A
100
AcDbEntity
100
AcDbLine
  8
0
 62
256
370
-1
  6
BYLAYER
 10
12.7070008249687092
 20
10.6423819839491323
 30
0.0
 11
12.4291079842249896
 21
11.3132746489588101
 31
0.0
  0
LINE
  5
18B
100
AcDbEntity
100
AcDbLine
  8
0
 62
256
370
-1
  6
BYLAYER
 10
12.4291079842249896
 20
11.3132746489588101
 30
0.0
 11
11.9870443134858107
 21
11.8893832410775797
 31
0.0
  0
ENDSEC
  0
SECTION
  2
OBJECTS
  0
DICTIONARY
  5
C
100
AcDbDictionary
280
0
281
1
  3
ACAD_GROUP
350
D
  3
ACAD_LAYOUT
350
1A
  3
ACAD_MLINESTYLE
350
17
  3
ACAD_PLOTSETTINGS
350
19
  3
ACAD_PLOTSTYLENAME
350
E
  3
AcDbVariableDictionary
350
18C
  3
QCAD_OBJECTS
350
18D
  0
DICTIONARY
  5
D
100
AcDbDictionary
280
0
281
1
  0
ACDBDICTIONARYWDFLT
  5
E
100
AcDbDictionary
281
1
  3
Normal
350
F
100
AcDbDictionaryWithDefault
340
F
  0
ACDBPLACEHOLDER
  5
F
  0
DICTIONARY
  5
17
100
AcDbDictionary
280
0
281
1
  3
Standard
350
18
  0
MLINESTYLE
  5
18
100
AcDbMlineStyle
  2
STANDARD
 70
0
  3

 62
256
 51
90.0
 52
90.0
 71
2
 49
0.5
 62
256
  6
BYLAYER
 49
-0.5
 62
256
  6
BYLAYER
  0
DICTIONARY
  5
19
100
AcDbDictionary
280
0
281
1
  0
DICTIONARY
  5
1A
100
AcDbDictionary
281
1
  3
Layout1
350
1E
  3
Layout2
350
26
  3
Model
350
22
  0
LAYOUT
  5
1E
100
AcDbPlotSettings
  1

  2
C:\Program Files\AutoCAD 2002\plotters\DWF ePlot (optimized for plotting).pc3
  4

  6

 40
0.0
 41
0.0
 42
0.0
 43
0.0
 44
0.0
 45
0.0
 46
0.0
 47
0.0
 48
0.0
 49
0.0
140
0.0
141
0.0
142
1.0
143
1.0
 70
688
 72
0
 73
0
 74
5
  7

 75
16
147
1.0
148
0.0
149
0.0
100
AcDbLayout
  1
Layout1
 70
1
 71
1
 10
0.0
 20
0.0
 11
420.0
 21
297.0
 12
0.0
 22
0.0
 32
0.0
 14
100000000000000000000.0
 24
100000000000000000000.0
 34
100000000000000000000.0
 15
-100000000000000000000.0
 25
-100000000000000000000.0
 35
-100000000000000000000.0
146
0.0
 13
0.0
 23
0.0
 33
0.0
 16
1.0
 26
0.0
 36
0.0
 17
0.0
 27
1.0
 37
0.0
 76
0
330
1B
  0
LAYOUT
  5
22
100
AcDbPlotSettings
  1

  2
C:\Program Files\AutoCAD 2002\plotters\DWF ePlot (optimized for plotting).pc3
  4

  6

 40
0.0
 41
0.0
 42
0.0
 43
0.0
 44
0.0
 45
0.0
 46
0.0
 47
0.0
 48
0.0
 49
0.0
140
0.0
141
0.0
142
1.0
143
1.0
 70
1712
 72
0
 73
0
 74
0
  7

 75
0
147
1.0
148
0.0
149
0.0
100
AcDbLayout
  1
Model
 70
1
 71
0
 10
0.0
 20
0.0
 11
12.0
 21
9.0
 12
0.0
 22
0.0
 32
0.0
 14
0.0
 24
0.0
 34
0.0
 15
0.0
 25
0.0
 35
0.0
146
0.0
 13
0.0
 23
0.0
 33
0.0
 16
1.0
 26
0.0
 36
0.0
 17
0.0
 27
1.0
 37
0.0
 76
0
330
1F
  0
LAYOUT
  5
26
100
AcDbPlotSettings
  1

  2
C:\Program Files\AutoCAD 2002\plotters\DWF ePlot (optimized for plotting).pc3
  4

  6

 40
0.0
 41
0.0
 42
0.0
 43
0.0
 44
0.0
 45
0.0
 46
0.0
 47
0.0
 48
0.0
 49
0.0
140
0.0
141
0.0
142
1.0
143
1.0
 70
688
 72
0
 73
0
 74
5
  7

 75
16
147
1.0
148
0.0
149
0.0
100
AcDbLayout
  1
Layout2
 70
1
 71
2
 10
0.0
 20
0.0
 11
12.0
 21
9.0
 12
0.0
 22
0.0
 32
0.0
 14
0.0
 24
0.0
 34
0.0
 15
0.0
 25
0.0
 35
0.0
146
0.0
 13
0.0
 23
0.0
 33
0.0
 16
1.0
 26
0.0
 36
0.0
 17
0.0
 27
1.0
 37
0.0
 76
0
330
23
  0
DICTIONARY
  5
18C
100
AcDbDictionary
281
1
  3
DIMASSOC
350
18F
  3
HIDETEXT
350
18E
  0
DICTIONARYVAR
  5
18E
100
DictionaryVariables
280
0
  1
2
  0
DICTIONARYVAR
  5
18F
100
DictionaryVariables
280
0
  1
1
  0
DICTIONARY
  5
18D
100
AcDbDictionary
281
1
  3
Grid/DisplayGrid00
350
190
  3
Grid/DisplayGrid01
350
191
  3
Grid/DisplayGrid02
350
192
  3
Grid/DisplayGrid03
350
193
  3
Grid/GridSpacingX00
350
194
  3
Grid/GridSpacingX01
350
195
  3
Grid/GridSpacingX02
350
196
  3
Grid/GridSpacingX03
350
197
  3
Grid/GridSpacingY00
350
198
  3
Grid/GridSpacingY01
350
199
  3
Grid/GridSpacingY02
350
19A
  3
Grid/GridSpacingY03
350
19B
  3
Grid/IsometricGrid00
350
19C
  3
Grid/IsometricGrid01
350
19D
  3
Grid/IsometricGrid02
350
19E
  3
Grid/IsometricGrid03
350
19F
  3
Grid/IsometricProjection00
350
1A0
  3
Grid/IsometricProjection01
350
1A1
  3
Grid/IsometricProjection02
350
1A2
  3
Grid/IsometricProjection03
350
1A3
  3
Grid/MetaGridSpacingX00
350
1A4
  3
Grid/MetaGridSpacingX01
350
1A5
  3
Grid/MetaGridSpacingX02
350
1A6
  3
Grid/MetaGridSpacingX03
350
1A7
  3
Grid/MetaGridSpacingY00
350
1A8
  3
Grid/MetaGridSpacingY01
350
1A9
  3
Grid/MetaGridSpacingY02
350
1AA
  3
Grid/MetaGridSpacingY03
350
1AB
  3
MultiPageSettings/Columns
350
1AC
  3
MultiPageSettings/GlueMarginsBottom
350
1AD
  3
MultiPageSettings/GlueMarginsLeft
350
1AE
  3
MultiPageSettings/GlueMarginsRight
350
1AF
  3
MultiPageSettings/GlueMarginsTop
350
1B0
  3
MultiPageSettings/PrintCropMarks
350
1B1
  3
MultiPageSettings/Rows
350
1B2
  3
PageSettings/OffsetX
350
1B3
  3
PageSettings/OffsetY
350
1B4
  3
PageSettings/PageOrientation
350
1B5
  3
PageSettings/PaperHeight
350
1B6
  3
PageSettings/PaperWidth
350
1B7
  3
PageSettings/Scale
350
1B8
  3
PageSettings/ShowPaperBorders
350
1B9
  3
UnitSettings/PaperUnit
350
1BA
  0
XRECORD
  5
190
330
18D
100
AcDbXrecord
280
1
290
1
  0
XRECORD
  5
191
330
18D
100
AcDbXrecord
280
1
290
1
  0
XRECORD
  5
192
330
18D
100
AcDbXrecord
280
1
290
1
  0
XRECORD
  5
193
330
18D
100
AcDbXrecord
280
1
290
1
  0
XRECORD
  5
194
330
18D
100
AcDbXrecord
280
1
1000
auto
  0
XRECORD
  5
195
330
18D
100
AcDbXrecord
280
1
1000
auto
  0
XRECORD
  5
196
330
18D
100
AcDbXrecord
280
1
1000
auto
  0
XRECORD
  5
197
330
18D
100
AcDbXrecord
280
1
1000
auto
  0
XRECORD
  5
198
330
18D
100
AcDbXrecord
280
1
1000
auto
  0
XRECORD
  5
199
330
18D
100
AcDbXrecord
280
1
1000
auto
  0
XRECORD
  5
19A
330
18D
100
AcDbXrecord
280
1
1000
auto
  0
XRECORD
  5
19B
330
18D
100
AcDbXrecord
280
1
1000
auto
  0
XRECORD
  5
19C
330
18D
100
AcDbXrecord
280
1
290
0
  0
XRECORD
  5
19D
330
18D
100
AcDbXrecord
280
1
290
0
  0
XRECORD
  5
19E
330
18D
100
AcDbXrecord
280
1
290
0
  0
XRECORD
  5
19F
330
18D
100
AcDbXrecord
280
1
290
0
  0
XRECORD
  5
1A0
330
18D
100
AcDbXrecord
280
1
 90
0
  0
XRECORD
  5
1A1
330
18D
100
AcDbXrecord
280
1
 90
0
  0
XRECORD
  5
1A2
330
18D
100
AcDbXrecord
280
1
 90
0
  0
XRECORD
  5
1A3
330
18D
100
AcDbXrecord
280
1
 90
0
  0
XRECORD
  5
1A4
330
18D
100
AcDbXrecord
280
1
1000
auto
  0
XRECORD
  5
1A5
330
18D
100
AcDbXrecord
280
1
1000
auto
  0
XRECORD
  5
1A6
330
18D
100
AcDbXrecord
280
1
1000
auto
  0
XRECORD
  5
1A7
330
18D
100
AcDbXrecord
280
1
1000
auto
  0
XRECORD
  5
1A8
330
18D
100
AcDbXrecord
280
1
1000
auto
  0
XRECORD
  5
1A9
330
18D
100
AcDbXrecord
280
1
1000
auto
  0
XRECORD
  5
1AA
330
18D
100
AcDbXrecord
280
1
1000
auto
  0
XRECORD
  5
1AB
330
18D
100
AcDbXrecord
280
1
1000
auto
  0
XRECORD
  5
1AC
330
18D
100
AcDbXrecord
280
1
 90
1
  0
XRECORD
  5
1AD
330
18D
100
AcDbXrecord
280
1
 40
10.0
  0
XRECORD
  5
1AE
330
18D
100
AcDbXrecord
280
1
 40
10.0
  0
XRECORD
  5
1AF
330
18D
100
AcDbXrecord
280
1
 40
10.0
  0
XRECORD
  5
1B0
330
18D
100
AcDbXrecord
280
1
 40
10.0
  0
XRECORD
  5
1B1
330
18D
100
AcDbXrecord
280
1
290
0
  0
XRECORD
  5
1B2
330
18D
100
AcDbXrecord
280
1
 90
1
  0
XRECORD
  5
1B3
330
18D
100
AcDbXrecord
280
1
 40
0.0
  0
XRECORD
  5
1B4
330
18D
100
AcDbXrecord
280
1
 40
0.0
  0
XRECORD
  5
1B5
330
18D
100
AcDbXrecord
280
1
1000
Portrait
  0
XRECORD
  5
1B6
330
18D
100
AcDbXrecord
280
1
 40
297.0
  0
XRECORD
  5
1B7
330
18D
100
AcDbXrecord
280
1
 40
210.0
  0
XRECORD
  5
1B8
330
18D
100
AcDbXrecord
280
1
1000
1:1
  0
XRECORD
  5
1B9
330
18D
100
AcDbXrecord
280
1
290
1
  0
XRECORD
  5
1BA
330
18D
100
AcDbXrecord
280
1
 90
4
  0
ENDSEC
  0
EOF
